<?xml version="1.0" encoding="utf-8"?>
<!-- Generator: Adobe Illustrator 26.5.0, SVG Export Plug-In . SVG Version: 6.00 Build 0)  -->
<svg version="1.1" id="Layer_1" xmlns="http://www.w3.org/2000/svg" xmlns:xlink="http://www.w3.org/1999/xlink" x="0px" y="0px"
	 viewBox="0 0 700 400" style="enable-background:new 0 0 700 400;" xml:space="preserve">
<style type="text/css">
	.st0{fill:#FFFFFF;}
	.st1{fill:#0094BB;}
</style>
<path class="st0" d="M685.8,183.5c0,6.5-0.9,11.6-2.9,15.4v-4.8c0.8-3,1.2-6.5,1.2-10.6c0-2.1-0.4-4.2-1.2-6.2v-3.9
	C684.8,176.7,685.8,180,685.8,183.5z"/>
<path class="st1" d="M682.9,177.3c0.8,2,1.2,4.1,1.2,6.2c0,4.1-0.4,7.6-1.2,10.6L682.9,177.3L682.9,177.3z"/>
<path class="st0" d="M682.9,194.1v4.9c-0.8,1.6-1.9,3-3.1,4.3c-4.1,4.1-10.3,5.9-19.5,5.9c-8.5,0-20.1-3.9-32.5-8
	c-12.8-4.3-26-8.7-35.9-8.7c-25.7,0-43.9,3.3-57.4,10.3c-15.3,8-17.9,10.4-26.3,18.2l-1.9,1.8c-2.1,2-3.7,3.4-4.8,4.5
	c10.8-0.8,37.9-1.6,49.6,9.6c6.8,6.5,10.4,12.8,10.8,18.8c0.3,5-1.6,9.8-5.6,14.4c-3.2,3.5-11.1,5.8-23.4,6.8
	c-10.2,0.8-21.3,0.5-28.2,0c-5.1-0.4-13.7-1.6-23.7-3c-18-2.5-40.5-5.7-53.9-5.7c-7.8,0-20.8-0.3-35.8-0.7
	c-25.3-0.7-56.9-1.5-78-1.1c-30.8,0.7-63.5,2.8-102.9,6.9c-37.4,3.8-70.7,8.9-81.4,11.5c-11.5,2.9-28.8,6.8-28.9,6.9l-1.8,0.4
	l-1.8-11.9l1.4-0.5c0.2-0.1,19.9-6.6,47.7-14c25.6-6.8,63.5-15.6,98.6-19.3l14.8-1.6c57-6,85.7-9,104.6-12.1c1.8-0.3,3.9-0.6,6-0.9
	c21.6-3.3,61.8-9.6,76-26.7c6.9-8.3,11.6-19.7,14.2-33.9c2.2-12.3,2.5-24.5,2.5-34.9c0-10.8,1.9-20.7,5.5-29.4
	c4.1-9.7,10.3-17.6,18.4-23.6c8.7-6.4,18.7-8,26.6-4.2c5.5,2.6,9.1,7.5,9.4,12.8c0.6,11.4-3.6,27.7-14.4,38.5
	c-7.2,7.2-9.4,9.7-10,10.4v0.2l-0.5,0.5c-4.4,4.2-16,16.5-16.4,22.7c-0.2,2.9-0.2,5.7,0.1,8.6c5.4-5.1,19.5-18.4,41.4-37.5
	c21.1-18.4,43.3-28.8,66.1-30.8c6.3-0.6,14.1,0.7,20.9,3.4c4.4,1.7,12,5.5,13.1,11.4c0.1,0.6,0.2,1.1,0.3,1.7
	c1.5,7.6,3.3,17.1-11,24.1c-9.4,4.6-24.8,3.5-38.4,2.6c-7.2-0.5-14.1-0.9-18.1-0.3c-9,1.4-25.9,4-39.7,13.8
	c-13.2,9.3-22.8,20.5-23.1,24.7c-0.2,2.3,0.3,2.9,0.4,2.9c0.2,0.1,0.7,0.3,2.5-0.1c0.9-0.3,3.7-3.4,5.5-5.4
	c3.6-4.1,7.4-8.3,10.8-9.1c3.1-0.7,7.3-0.4,9.7,2.4c1.4,1.5,2.6,4.4,0.9,9.3c-3.1,9-9.2,12.4-14.5,14.1l0.3,0
	c7.4-0.5,14-3.7,19.6-9.7c14.7-15.4,36.4-30.7,50.6-35.6c17.5-6,35.7-7.6,55.7-4.8c12.8,1.8,25.4,5.7,34.5,10.8
	c6.7,3.7,11.4,8,14.3,12.6v3.9c-5.4-13.8-28.5-22.8-49-25.6c-23.5-3.3-41.2,0-54.9,4.7c-13.7,4.7-35.4,19.9-49.9,35.1
	c-14.5,15.2-31.1,9-31.1,9s1.4,0,7.9-1.8c6.5-1.8,11.9-5.1,14.8-13.4c2.5-7.1-1.9-9.7-6.3-9.7c-0.8,0-1.6,0.1-2.4,0.3
	c-5.1,1.1-13,13.8-16.3,14.5s-5.4,0.4-5.1-4.7c0.4-5.1,10.5-16.7,23.9-26.1c13.4-9.4,28.9-12.3,40.5-14.1c11.6-1.8,41.9,4.7,56-2.2
	s11.2-15.9,9.8-23.9s-19.9-14.5-32.2-13.4c-12.3,1.1-36.5,5.4-65.1,30.4s-43.7,39.8-43.7,39.8s-1.1-4-0.6-12.3
	c0.5-8.3,16.9-23.9,16.9-23.9s0-0.6,10.5-11.1c10.5-10.5,14.4-26.6,13.9-37.2c-0.5-10.5-16.6-19.4-33.2-7.2
	c-16.6,12.2-23.3,31.6-23.3,51.6s-1.1,50.5-17.2,69.9s-62.6,25-83.1,28.3c-20.5,3.3-51.9,6.5-119.5,13.7S98.4,281.4,98.4,281.4
	l1.3,8.6c0,0,17.3-4,28.9-6.9c11.6-2.9,46.3-8,81.7-11.6s69.4-6.1,103-6.9c33.6-0.7,92.9,1.8,113.9,1.8c21,0,63.6,7.6,77.7,8.7
	c14.1,1.1,43.7,1.1,50.2-6.1c6.5-7.2,9-17.4-5.1-30.8c-14.1-13.4-52.8-8.7-52.8-8.7s-2.2,1.4,8-8c10.1-9.4,11.9-11.6,28.6-20.3
	s38.7-10.5,58.2-10.5s51.3,16.7,68.3,16.7C673.2,207.4,680.2,203.6,682.9,194.1z"/>
<path class="st1" d="M682.9,183.5v10.6c-2.6,9.5-9.7,13.3-22.7,13.3c-17,0-48.8-16.7-68.3-16.7c-19.5,0-41.6,1.8-58.2,10.5
	c-16.6,8.7-18.4,10.9-28.6,20.3c-10.1,9.4-8,8-8,8s38.7-4.7,52.8,8.7c14.1,13.4,11.6,23.5,5.1,30.8c-6.5,7.2-36.1,7.2-50.2,6.1
	c-14.1-1.1-56.7-8.7-77.7-8.7s-80.2-2.5-113.9-1.8c-33.6,0.7-67.6,3.3-103,6.9s-70.1,8.7-81.7,11.6c-11.6,2.9-28.9,6.9-28.9,6.9
	l-1.3-8.6c0,0,78.3-26.1,145.9-33.2c67.6-7.1,99-10.3,119.5-13.7s67.1-8.9,83.1-28.3s17.2-49.9,17.2-69.9s6.6-39.4,23.3-51.6
	s32.7-3.3,33.2,7.2c0.6,10.5-3.3,26.6-13.9,37.2s-10.5,11.1-10.5,11.1s-16.4,15.6-16.9,23.9s0.6,12.3,0.6,12.3s15.2-14.8,43.7-39.8
	s52.8-29.3,65.1-30.4c12.3-1.1,30.7,5.4,32.2,13.4s4.3,17-9.8,23.9s-44.5,0.4-56,2.2c-11.6,1.8-27.1,4.7-40.5,14.1
	c-13.4,9.4-23.5,21-23.9,26.1c-0.4,5.1,1.8,5.4,5.1,4.7C499,189.7,507,177,512,176c0.8-0.2,1.6-0.3,2.4-0.3v0.1
	c-3.1,0-6.9,3.2-12.1,9.9l-0.2,0.2l-1.5,2.9c-1.8,1.9-3.2,3-4.5,3.3c-1.9,0.4-4,0.7-5.6-0.7c-1.7-1.5-1.7-4-1.6-5.8
	c0.4-5.9,11.2-18,24.6-27.4c12.8-9,27.4-12.2,41.2-14.4c4.4-0.7,11.1-0.2,18.9,0.3c12.5,0.8,28.1,1.9,36.7-2.3
	c11.9-5.8,10.6-12.8,9.1-20.3c-0.1-0.6-0.2-1.1-0.3-1.7c-0.5-3-4.6-6.3-10.9-8.8s-13.7-3.7-19.4-3.2c-22,1.9-43.5,12-64.1,30
	c-28.2,24.6-43.5,39.6-43.7,39.7l-2.1,2.1l-0.8-2.8c-0.1-0.2-1.2-4.4-0.7-12.9c0.2-3.8,3.3-9.2,9.1-16.1c3.7-4.4,7.4-8,8.2-8.8
	c0.4-0.6,0.9-1.1,1.4-1.7c1.8-2,4.9-5.2,9.3-9.6c9.3-9.4,13.4-23.7,13.4-34c0-0.6,0-1.3,0-1.9c-0.2-4-3.1-7.7-7.4-9.8
	c-6.8-3.2-15.4-1.8-23,3.9c-7.7,5.6-13.5,13.1-17.3,22.2c-3.5,8.3-5.3,17.7-5.3,28c0,10.5-0.3,22.9-2.6,35.5
	c-2.7,14.8-7.7,26.8-15,35.6c-6.7,8.1-18.6,14.5-36.5,19.6c-14.7,4.2-30.3,6.6-41.7,8.4c-2.2,0.3-4.2,0.6-6,0.9
	c-19,3.1-47.7,6.1-104.8,12.1l-14.8,1.6c-19.2,2-51.8,7-98,19.2c-23.5,6.2-41.2,11.8-46.1,13.5l0.8,5.2c4.8-1.1,17.8-4.1,27-6.4
	c12.3-3.1,48.3-8.2,81.9-11.6c39.5-4,72.3-6.2,103.1-6.9c21.2-0.5,52.8,0.4,78.2,1.1c15,0.4,28,0.7,35.7,0.7
	c13.6,0,36.2,3.2,54.4,5.7c9.9,1.4,18.5,2.6,23.5,3c17,1.3,43.4,0.4,48.8-5.6c7.7-8.6,6.1-17.8-5-28.3c-12.7-12.1-47.6-8.6-51.1-8.2
	c-0.7,0.3-1.6,0.1-2.1-0.5c-0.3-0.4-0.8-1.3,0.2-2.5c0.2-0.3,0.6-0.7,1.2-1.3c1.4-1.4,3.7-3.6,6.9-6.6l1.9-1.8
	c8.7-8.1,11.3-10.5,27-18.8c14-7.3,32.7-10.7,59-10.7c10.4,0,23.9,4.5,37,8.8c12.1,4,23.4,7.8,31.4,7.8c8.2,0,13.7-1.6,17.1-4.9
	c3.4-3.4,5-8.9,5-17.2L682.9,183.5z"/>
<path class="st1" d="M682.9,177.3v6.2h-0.6c0-9.1-8.4-15.8-15.4-19.7c-8.8-4.9-20.9-8.7-33.3-10.4c-19.5-2.7-37.2-1.2-54.1,4.6
	c-13.5,4.6-35.1,19.8-49.2,34.7c-7.9,8.3-16.4,10.4-22.1,10.8c-6.3,0.4-10.6-1.2-10.8-1.3l-10.9-4l11.5,0.6c0.2,0,1.9-0.2,7.5-1.7
	c9.1-2.5,12-7.6,13.6-12.3c0.6-1.8,1.1-4.3-0.3-5.8c-0.1-0.1-0.3-0.3-0.4-0.4c-0.9-1.9-2.2-2.5-3.2-2.7c-0.3,0-0.5-0.1-0.8-0.1v-0.1
	c4.5,0,8.8,2.6,6.3,9.7c-2.9,8.3-8.3,11.6-14.8,13.4c-6.5,1.8-7.9,1.8-7.9,1.8s16.6,6.1,31.1-9c14.5-15.2,36.1-30.4,49.9-35.1
	c13.7-4.7,31.4-8,54.9-4.7C654.4,154.6,677.4,163.5,682.9,177.3z"/>
<path class="st1" d="M682.4,373.1c0,3.1-0.5,5.9-1.4,8.4c-1,2.5-2.3,4.4-3.9,5.9c-1,0.9-2.6,1.6-4.7,2c-2.8,0.5-4.6,0.8-5.5,0.8
	h-21.2v-60.2h23c3.8,0,6.8,1.4,8.8,4.3c2.1,2.9,3.1,6.4,3.1,10.7c0,3.6-0.7,6.6-2.2,9.2c-1,1.7-2.5,3.1-4.3,4c2.9,1,5,2.8,6.3,5.4
	S682.4,369.3,682.4,373.1z M670.1,371c0-1.8-0.4-3.2-1.3-4.3c-0.9-1.1-2.4-1.6-4.5-1.6H658v12.2h6.3c2.1,0,3.6-0.6,4.5-1.7
	C669.6,374.5,670.1,372.9,670.1,371L670.1,371z M668.5,347.9c0-1.7-0.4-3.1-1.1-4.1c-0.8-1-2.1-1.5-3.9-1.5H658v11.4h5.3
	c1.9,0,3.2-0.5,4-1.5C668.1,351.2,668.5,349.7,668.5,347.9L668.5,347.9z"/>
<path class="st1" d="M682.3,183.5c0,8.3-1.6,13.8-5,17.2c-3.4,3.4-8.8,4.9-17.1,4.9c-7.9,0-19.3-3.8-31.4-7.8
	c-13.1-4.3-26.6-8.8-37-8.8c-26.3,0-45,3.4-59,10.7c-15.7,8.2-18.4,10.7-27,18.8l-1.9,1.8c-3.2,3-5.6,5.2-6.9,6.6
	c-0.6,0.6-0.9,1-1.2,1.3c-1,1.2-0.6,2.1-0.2,2.5c0.5,0.6,1.3,0.8,2.1,0.5c3.5-0.4,38.4-3.8,51.1,8.2c11,10.5,12.7,19.8,5,28.3
	c-5.4,6-31.8,6.9-48.8,5.6c-5-0.4-13.5-1.6-23.5-3c-18.1-2.5-40.7-5.7-54.4-5.7c-7.7,0-20.7-0.3-35.7-0.7c-25.4-0.7-57-1.5-78.2-1.1
	c-30.9,0.7-63.6,2.8-103.1,6.9c-33.6,3.4-69.6,8.5-81.9,11.6c-9.2,2.3-22.3,5.3-27,6.4l-0.8-5.2c5-1.6,22.7-7.3,46.1-13.5
	c46.2-12.2,78.8-17.2,98-19.2l14.8-1.6c57.1-6,85.8-9,104.8-12.1c1.8-0.3,3.8-0.6,6-0.9c11.4-1.8,27-4.2,41.7-8.4
	c17.9-5.1,29.8-11.5,36.5-19.6c7.2-8.8,12.3-20.7,15-35.6c2.3-12.5,2.6-25,2.6-35.5c0-10.3,1.8-19.7,5.3-28
	c3.8-9.1,9.6-16.5,17.3-22.2c7.6-5.6,16.3-7.1,23-3.9c4.4,2.1,7.2,5.8,7.4,9.8c0,0.6,0,1.2,0,1.9c0,10.2-4,24.6-13.4,34
	c-4.4,4.4-7.5,7.6-9.3,9.6c-0.5,0.5-1,1.1-1.4,1.7c-0.8,0.8-4.5,4.4-8.2,8.8c-5.8,6.8-8.8,12.2-9.1,16.1c-0.5,8.5,0.6,12.7,0.7,12.9
	l0.8,2.8l2.1-2.1c0.2-0.1,15.5-15.1,43.7-39.7c20.5-17.9,42.1-28,64.1-30c5.7-0.5,13.1,0.7,19.4,3.2c6.3,2.5,10.4,5.8,10.9,8.8
	c0.1,0.6,0.2,1.1,0.3,1.7c1.4,7.5,2.8,14.5-9.1,20.3c-8.5,4.2-24.1,3.1-36.7,2.3c-7.8-0.5-14.5-1-18.9-0.3
	c-13.8,2.2-28.4,5.4-41.2,14.4c-13.4,9.4-24.2,21.4-24.6,27.4c-0.1,1.8-0.1,4.4,1.6,5.8c1.6,1.4,3.7,1.1,5.6,0.7
	c1.3-0.3,2.6-1.4,4.5-3.3l-2.3,4.6l4.1-1.4c2.8-1,5.6-2.2,8.3-3.6c4-2,9.1-5.1,8-8.8c-0.1-0.4-0.2-0.7-0.4-1
	c0.2,0.1,0.3,0.3,0.4,0.4c1.3,1.5,0.9,4,0.3,5.8c-1.6,4.6-4.5,9.7-13.6,12.3c-5.6,1.5-7.3,1.7-7.5,1.7l-11.5-0.6l10.9,4
	c0.2,0.1,4.6,1.7,10.8,1.3c5.8-0.4,14.3-2.5,22.1-10.8c14.1-14.8,35.7-30,49.2-34.7c17-5.8,34.7-7.3,54.1-4.6
	c12.4,1.7,24.5,5.5,33.3,10.4C673.9,167.8,682.3,174.4,682.3,183.5z M669.3,182.8c1-3.3-0.9-7.7-5.6-13.1c-2.9-3.4-9.6-6.5-18.2-8.5
	c-6.9-1.6-18.4-3.3-33.8-2.3c-26.6,1.8-41.4,11.8-42.1,12.2l-5.7,3.9l6.9-0.7c0.1,0,6.9-0.7,15.5-1.4c8.3-0.7,16.8,1,33.1,4.7
	c5.3,1.2,11.2,3,16.8,4.7c12,3.6,22.3,6.7,27.8,5.1C666.8,186.6,668.7,185,669.3,182.8z M608.5,130.9c2.3-1,3.8-3.3,3.7-6
	c-0.1-4-3.1-7.8-7.8-9.5c-9.7-3.7-19.1-3.5-32.6,0.7c-15.3,4.7-36.1,19.9-37,20.5l1.7,3c0.1,0,7.2-2.9,14.2-4.6
	c1.2-0.3,2.6-0.7,4-1.1c7-1.9,16.7-4.4,24.9-4.7c4.5-0.2,9.9,0.6,14.7,1.3C600.7,131.4,605.7,132.1,608.5,130.9z M540.9,254.9
	c2.5-2.2,3.5-5.7,2.5-9c-0.6-1.9-2.1-4.6-8.7-6.1c-4.2-1-9.8-1.4-16.8-2l-3-0.2c-10.1-0.8-20.9-0.6-32.2-0.3
	c-6.1,0.1-12.4,0.3-18.9,0.3c-13.5,0-46.6,1.5-68.5,2.5c-9.3,0.4-16.7,0.7-20.3,0.9c-12.4,0.4-31.8,4.4-32.7,4.6l0.4,3.5
	c0.8,0,80.4-0.4,108.7-0.4c28.6,0,44.8,1.7,56.7,2.9l2.5,0.3c10.3,1.1,15.5,1.6,21,4.1C534.8,257.4,538.3,257.1,540.9,254.9
	L540.9,254.9z M509.8,94.6c0.2-4.6-2.4-6.4-3.9-7.1c-5.6-2.5-15.1,1.4-23.6,9.7c-10.9,10.6-11.8,32.6-11.8,39.5c0,1.1,0,1.9,0,2
	l0.4,9.6l3-9.1c0-0.1,1.8-5.4,4.3-11.1c2.4-5.6,4-8.4,12.2-12.5C498.5,111.6,509.4,105,509.8,94.6z"/>
<path class="st1" d="M663.7,169.7c4.7,5.4,6.6,9.8,5.6,13.1c-0.6,2.2-2.5,3.7-5.4,4.6c-5.5,1.6-15.8-1.5-27.8-5.1
	c-5.7-1.7-11.5-3.4-16.8-4.7c-16.2-3.7-24.8-5.4-33.1-4.7c-8.6,0.7-15.4,1.4-15.5,1.4l-6.9,0.7l5.7-3.9c0.6-0.4,15.5-10.4,42.1-12.2
	c15.4-1.1,26.9,0.6,33.8,2.3C654.1,163.3,660.7,166.4,663.7,169.7z M663.4,185.7c7.6-2.2,4-9.1-1.1-14.8
	c-5.1-5.8-24.2-11.9-50.6-10.1c-26.4,1.8-41.2,11.9-41.2,11.9s6.9-0.7,15.5-1.4c8.7-0.7,17.7,1.1,33.6,4.7
	C635.6,179.6,655.9,187.9,663.4,185.7L663.4,185.7z"/>
<path class="st0" d="M662.4,101.5c5.8,4.6,8.3,8.1,6.8,19.3c-0.8,6.1-4.1,11.6-8.9,15.1c-4,2.8-8.6,3.9-13.1,3.1
	c-7.6-1.5-20.4-6.5-21.3-23.7c0-0.3,0-0.6,0-1c0-6.2,3-11.3,8.7-15.1c2.8-1.8,5.8-3.1,9-3.9l0.3-0.1l0.3,0c0,0,2.5,0.4,5.7,0.7
	C653.1,96.4,656.5,96.8,662.4,101.5z M667.4,120.6c1.4-10.5-0.7-13.4-6.1-17.7c-5.4-4.4-8.3-4.7-11.6-5.1c-3.2-0.4-5.8-0.7-5.8-0.7
	s-17,3.6-16.3,18.1s10.5,20.3,19.9,22.1C656.9,139.1,666,131.1,667.4,120.6z"/>
<path class="st1" d="M661.3,102.9c5.4,4.3,7.6,7.2,6.1,17.7c-1.4,10.5-10.5,18.5-19.9,16.7c-9.4-1.8-19.2-7.6-19.9-22.1
	s16.3-18.1,16.3-18.1s2.5,0.4,5.8,0.7C653,98.2,655.9,98.5,661.3,102.9z M665.7,120.4c1.4-10.1-0.8-12.4-5.5-16.1
	c-5.1-4.1-7.7-4.4-10.7-4.7c-2.6-0.3-4.7-0.6-5.5-0.7c-2.7,0.7-5.3,1.8-7.6,3.4c-4.9,3.2-7.3,7.6-7,12.9
	c0.7,14.1,10.4,18.9,18.5,20.5c3.5,0.7,7.2-0.2,10.4-2.5C662.2,130.2,665,125.5,665.7,120.4L665.7,120.4z"/>
<path class="st0" d="M666.1,181c0,0.3,0,0.6-0.1,0.8c-0.3,1-1.3,1.7-3,2.2c-4.5,1.3-15.4-1.9-25.8-5.1c-5.7-1.7-11.6-3.5-17-4.7
	c-16.6-3.8-25.4-5.5-34.1-4.7c-2.3,0.2-4.6,0.4-6.5,0.6c6.8-2.9,17.9-6.6,32.5-7.6c26.6-1.8,44.7,4.5,49.2,9.5
	C664.3,175.7,666.1,178.9,666.1,181z"/>
<path class="st1" d="M660.2,104.2c4.7,3.8,6.9,6,5.5,16.1c-0.7,5.1-3.5,9.9-7.4,12.7c-3.2,2.3-6.9,3.2-10.4,2.5
	c-8-1.6-17.8-6.4-18.5-20.5c-0.3-5.3,2.1-9.6,7-12.9c2.3-1.5,4.9-2.6,7.6-3.4c0.8,0.1,2.9,0.4,5.5,0.7
	C652.5,99.9,655.1,100.2,660.2,104.2z M657.1,109.3l3.7-1.1l-3.2-2.1c-0.4-0.2-8.9-5.6-15.9-1.5c-3.3,1.9-5.5,4.5-6.6,7.3
	c-1,2.7-0.8,5.8,0.5,8.3c1.1,2.2,3.1,3.5,5.3,3.5c3.2-0.1,6.4-2.8,8.3-7.1C651.6,111,657,109.3,657.1,109.3z"/>
<path class="st0" d="M662.4,170.9c5.1,5.8,8.7,12.7,1.1,14.8c-7.6,2.2-27.8-6.2-43.7-9.8c-15.9-3.6-24.9-5.4-33.6-4.7
	c-8.7,0.7-15.5,1.4-15.5,1.4s14.8-10.1,41.2-11.9C638.1,158.9,657.3,165.1,662.4,170.9z M665.9,181.8c0.1-0.3,0.1-0.5,0.1-0.8
	c0-2.1-1.8-5.3-5-9c-4.4-5.1-22.6-11.4-49.2-9.5c-14.6,1-25.7,4.6-32.5,7.6c2-0.2,4.2-0.4,6.5-0.6c8.8-0.7,17.5,1,34.1,4.7
	c5.4,1.2,11.3,3,17,4.7c10.5,3.1,21.3,6.4,25.8,5.1C664.7,183.6,665.7,182.8,665.9,181.8L665.9,181.8z"/>
<path class="st1" d="M660.8,108.2l-3.7,1.1c-0.1,0-5.4,1.7-7.9,7.4c-1.9,4.3-5.1,7.1-8.3,7.1c-2.3,0.1-4.2-1.2-5.3-3.5
	c-1.3-2.6-1.5-5.6-0.5-8.3c1-2.9,3.3-5.4,6.6-7.3c7-4.1,15.6,1.3,15.9,1.5L660.8,108.2z M647.5,115.9c1.8-3.9,5-6.9,9-8.3
	c0,0-7.9-5.1-14.1-1.5c-6.2,3.6-7.6,9.1-5.4,13.4S644.6,122.4,647.5,115.9z"/>
<path class="st0" d="M656.6,107.6c-4,1.4-7.3,4.4-9,8.3c-2.9,6.5-8.3,8-10.5,3.6c-2.2-4.3-0.7-9.8,5.4-13.4
	C648.6,102.5,656.6,107.6,656.6,107.6z M645.9,115.2c1.4-3.1,3.7-5.8,6.6-7.6c-2.5-1-6.2-1.7-9.2,0c-4.8,2.8-6.7,7.2-4.7,11.1
	c0.5,1,1.2,1.5,2.1,1.5C642.2,120.2,644.4,118.6,645.9,115.2z"/>
<path class="st0" d="M652.6,107.6c-2.9,1.8-5.2,4.5-6.6,7.6c-1.5,3.4-3.7,5-5.2,5.1c-0.9,0-1.6-0.5-2.1-1.5
	c-1.9-3.9-0.1-8.3,4.7-11.1C646.4,105.9,650,106.6,652.6,107.6z"/>
<path class="st1" d="M637.5,330.1v35.9c0,3.4-0.4,6.8-1.1,10.1c-0.6,2.9-1.8,5.8-3.4,8.3c-1.6,2.4-3.2,4-4.9,5c-2.4,1.3-5.2,2-8.6,2
	c-2.1,0-4.3-0.2-6.3-0.6c-2.3-0.4-4.2-1.2-5.7-2.4c-1.5-1.2-2.9-2.9-4.2-5.2c-1.2-2.2-2.1-4.5-2.6-6.9c-0.8-3.8-1.1-7.2-1.1-10.2
	v-35.9h12.3v36.7c0,3.3,0.6,5.8,1.8,7.7c1.2,1.8,2.9,2.8,5,2.8c2.1,0,3.8-0.9,5-2.7s1.8-4.4,1.8-7.7v-36.7H637.5z"/>
<path class="st1" d="M535.9,138c0.2-0.1,7.3-2.9,14.4-4.7c7.2-1.8,19.2-5.4,29.3-5.8s23.9,3.6,28.2,1.8c4.3-1.8,3.6-9.4-4-12.3
	s-16.3-4-31.4,0.7C557.3,122.4,536.2,137.7,535.9,138z M612.2,124.9c0,2.7-1.4,5-3.7,6c-2.8,1.2-7.8,0.5-14.1-0.4
	c-4.8-0.7-10.2-1.4-14.7-1.3c-8.2,0.3-17.8,2.8-24.9,4.7c-1.4,0.4-2.8,0.7-4,1.1c-7,1.8-14.2,4.6-14.2,4.6l-1.7-3
	c0.9-0.6,21.7-15.8,37-20.5c13.5-4.2,22.9-4.4,32.6-0.7C609.1,117.1,612.1,120.9,612.2,124.9L612.2,124.9z"/>
<path class="st0" d="M609.7,209.9c2.4,3.7,2.6,8.1,0.4,12.4c-2.7,5.5-6.5,9.2-11.1,10.9c-4,1.5-8.5,1.6-13.4,0.1
	c-3.1-1-6.5-2.8-10-4.8c-6-3.4-12.7-7.1-19.4-6.7c-10.7,0.7-11.9,0.7-12,0.7h-1.6l-0.6-7.4l0.9-0.6c0.9-0.5,21.5-12.5,40.5-13.6
	C595.5,200.3,605.6,203.7,609.7,209.9z M608.5,221.6c5.4-10.9-6.1-19.9-24.9-18.8c-18.8,1.1-39.8,13.4-39.8,13.4l0.4,4.7
	c0,0,0.7,0,11.9-0.7c11.2-0.7,21.7,9.1,30,11.6C594.4,234.2,603.1,232.4,608.5,221.6L608.5,221.6z"/>
<path class="st0" d="M608.7,124.9L608.7,124.9c0,0.7-0.2,2.1-1.6,2.7c-1.9,0.8-7.2,0.1-12.2-0.6c-4.9-0.7-10.5-1.5-15.3-1.3
	c-8.6,0.3-18.4,2.9-25.6,4.8c-1.4,0.4-2.8,0.7-4,1c-0.8,0.2-1.5,0.4-2.3,0.6c7.4-4.7,17.3-10.3,25.3-12.8
	c15.7-4.8,23.8-3.2,30.3-0.8C607.2,120.1,608.7,123,608.7,124.9z"/>
<path class="st1" d="M583.6,202.7c18.8-1.1,30.4,8,24.9,18.8c-5.4,10.9-14.1,12.7-22.4,10.1c-8.3-2.5-18.8-12.3-30-11.6
	s-11.9,0.7-11.9,0.7l-0.4-4.7C543.8,216.1,564.8,203.8,583.6,202.7z M606.9,220.8c0.7-1.4,1.1-2.9,1.1-4.5c0-1.6-0.5-3.1-1.4-4.4
	c-3.4-5.2-12.2-8-23.1-7.4c-15.9,0.9-33.8,10.3-38,12.6l0.1,1.9c1.6-0.1,4.5-0.3,10.2-0.6c7.7-0.5,15,3.6,21.4,7.2
	c3.3,1.9,6.5,3.7,9.3,4.5C592.8,231.9,601.4,231.9,606.9,220.8z"/>
<path class="st0" d="M603.8,117c7.6,2.9,8.3,10.5,4,12.3c-4.3,1.8-18.1-2.2-28.2-1.8c-10.1,0.4-22.1,4-29.3,5.8
	c-7.1,1.8-14.2,4.6-14.4,4.7c0.3-0.2,21.4-15.6,36.5-20.3C587.5,113,596.2,114.1,603.8,117z M608.7,125L608.7,125
	c0-2-1.5-4.8-5.5-6.4c-6.5-2.5-14.6-4.1-30.3,0.8c-8,2.5-17.9,8.1-25.3,12.8c0.7-0.2,1.5-0.4,2.3-0.6c1.2-0.3,2.6-0.7,4-1
	c7.2-1.9,17-4.5,25.6-4.8c4.8-0.2,10.4,0.6,15.3,1.3c5.1,0.7,10.3,1.4,12.2,0.6C608.5,127.1,608.7,125.6,608.7,125z"/>
<path class="st1" d="M608.1,216.3c0,1.6-0.4,3.1-1.1,4.5c-5.5,11.1-14.1,11.1-20.3,9.2c-2.8-0.8-5.9-2.6-9.3-4.5
	c-6.4-3.6-13.6-7.7-21.4-7.2c-5.7,0.4-8.6,0.5-10.2,0.6l-0.1-1.9c4.3-2.3,22.1-11.7,38-12.6c10.8-0.6,19.7,2.2,23.1,7.4
	C607.6,213.2,608.1,214.7,608.1,216.3z M598.3,221c3.3-1.4,3.9-3.3,3.8-4.6c-0.1-1.7-1.5-3.3-3.9-4.8c-2.1-1.2-4.8-2.2-8-3
	c-9.4-2.3-24.8,2.4-25.5,2.6l-6.5,2l6.6,1.4c0.1,0,10.1,2.2,16.5,4c1.6,0.5,3.2,1,4.7,1.7C589.7,221.7,593.3,223.1,598.3,221z"/>
<path class="st0" d="M602.1,216.4c0.1,1.3-0.5,3.2-3.8,4.6c-5.1,2.1-8.6,0.7-12.3-0.8c-1.5-0.6-3.1-1.2-4.7-1.7
	c-6.4-1.8-16.4-3.9-16.5-4l-6.6-1.4l6.5-2c0.7-0.2,16.1-4.8,25.5-2.6c3.2,0.8,6,1.8,8,3C600.7,213.1,602,214.7,602.1,216.4z
	 M597.7,219.4c6.1-2.5,1.1-6.9-8-9c-9-2.2-24.6,2.5-24.6,2.5s10.1,2.2,16.6,4C588.3,218.6,591.5,221.9,597.7,219.4z"/>
<path class="st0" d="M598.6,216.7L598.6,216.7c0,0.1-0.3,0.6-1.6,1.1c-3.8,1.5-6.1,0.6-9.7-0.8c-1.7-0.7-3.3-1.3-5.1-1.8
	c-2.8-0.8-6.3-1.6-9.4-2.4c5.1-1,11.8-1.9,16.5-0.8c2.9,0.7,5.5,1.7,7.3,2.7C598.3,215.8,598.6,216.5,598.6,216.7z"/>
<path class="st0" d="M595.1,70.5c1.6,1.2,3.6,3.6,3.3,7.9c-0.4,6.1-1.5,10.3-3.5,13.4c-2.3,3.6-5.9,5.6-10.8,6
	c-4.2,0.3-8.6,0.8-12.9,1.3c-4.8,0.5-9.3,1-12.8,1.2c-5.3,0.3-8.3,2.2-12.1,4.5c-0.5,0.3-1,0.7-1.6,1c-1.9,1.2-3.7,1.5-5.5,1.1
	c-2.6-0.7-4-2.9-4.2-3.1l-0.4-0.7l0.3-0.8c0.1-0.2,1.8-5.1,6-11c3.9-5.5,10.9-12.9,21.7-17.2C582.7,66.2,591.4,67.8,595.1,70.5z
	 M596.6,78.3c0.7-10.5-13-10.5-33.3-2.5s-26.7,27.1-26.7,27.1s2.5,4.3,7.2,1.4c4.7-2.9,8-5.4,14.5-5.8c6.5-0.4,16.6-1.8,25.7-2.5
	C593,95.3,595.9,88.8,596.6,78.3L596.6,78.3z"/>
<path class="st0" d="M589.7,210.3c9,2.2,14.1,6.5,8,9c-6.1,2.5-9.4-0.7-15.9-2.5c-6.5-1.8-16.6-4-16.6-4S580.7,208.2,589.7,210.3z
	 M598.6,216.7L598.6,216.7c0-0.1-0.4-0.9-2-1.9c-1.8-1.1-4.3-2-7.3-2.7c-4.7-1.1-11.4-0.2-16.5,0.8c3.1,0.7,6.6,1.6,9.4,2.4
	c1.7,0.5,3.4,1.1,5.1,1.8c3.6,1.4,6,2.4,9.7,0.8C598.3,217.2,598.6,216.8,598.6,216.7z"/>
<path class="st1" d="M563.3,75.7c20.3-8,34-8,33.3,2.5s-3.6,17-12.7,17.7s-19.2,2.2-25.7,2.5c-6.5,0.4-9.8,2.9-14.5,5.8
	c-4.7,2.9-7.2-1.4-7.2-1.4S543.1,83.7,563.3,75.7z M594.8,78.1c0-0.2,0-0.4,0-0.6c0-1.9-0.6-3.2-1.9-4.2c-4.1-3-15-1.5-29,4
	c-10,3.9-16.5,10.8-20.1,15.8c-2.1,2.9-3.9,6.1-5.3,9.4c0.4,0.4,0.9,0.8,1.5,0.9c0.8,0.2,1.8,0,2.8-0.7c0.5-0.3,1.1-0.7,1.6-1
	c4-2.5,7.5-4.7,13.7-5.1c3.4-0.2,7.9-0.7,12.6-1.2c4.3-0.5,8.7-1,13-1.3C591,93.7,594.1,89.2,594.8,78.1L594.8,78.1z"/>
<polygon class="st1" points="595.2,375.4 595.2,390.2 563.7,390.2 563.7,330.1 576,330.1 576,375.4 "/>
<path class="st1" d="M594.9,77.5c0,0.2,0,0.4,0,0.6c-0.8,11-3.9,15.5-11,16.1c-4.3,0.3-8.7,0.8-13,1.3c-4.7,0.5-9.2,1-12.6,1.2
	c-6.2,0.3-9.7,2.5-13.7,5.1c-0.5,0.3-1,0.6-1.6,1c-1,0.6-2,0.9-2.8,0.7c-0.6-0.2-1.1-0.5-1.5-0.9c1.4-3.3,3.2-6.5,5.3-9.4
	c3.6-5.1,10.1-11.9,20.1-15.8c14.1-5.5,24.9-7,29-4C594.2,74.2,594.9,75.6,594.9,77.5z M587.1,84.5c2.2-2.6,2.7-5.4,1.3-7.5
	c-0.9-1.3-3.7-4-11.5-1.5c-9.3,3-20,11.9-20.5,12.3l-4.3,3.6l5.6-0.5c0.2,0,4.2-0.4,11.8-2.2c2.7-0.6,5.1-0.6,7.3-0.7
	C580.5,88,584.1,88,587.1,84.5L587.1,84.5z"/>
<path class="st1" d="M588.4,77c1.4,2.1,0.9,4.9-1.3,7.5c-3,3.5-6.5,3.5-10.3,3.5c-2.1,0-4.6,0-7.3,0.7c-7.6,1.8-11.6,2.2-11.8,2.2
	l-5.6,0.5l4.3-3.6c0.5-0.4,11.2-9.3,20.5-12.3C584.7,73,587.5,75.7,588.4,77z M585.7,83.3c4-4.7,0.7-9-8.3-6.2s-19.9,12-19.9,12
	s4-0.4,11.6-2.2C576.7,85.1,581.8,88,585.7,83.3L585.7,83.3z"/>
<path class="st0" d="M577.4,77.2c9-2.9,12.3,1.4,8.3,6.2s-9,1.8-16.6,3.6c-7.6,1.8-11.6,2.2-11.6,2.2S568.4,80.1,577.4,77.2z
	 M585.7,79.6c0-0.2-0.1-0.5-0.2-0.7c-0.7-1-3.3-1.4-7.5-0.1c-4.6,1.5-9.8,4.7-13.7,7.4c1.3-0.3,2.8-0.6,4.4-1
	c3.1-0.7,5.7-0.7,8.1-0.7c3.7,0,5.8-0.1,7.6-2.3C585.2,81.2,585.7,80.3,585.7,79.6z"/>
<path class="st0" d="M585.5,78.9c0.1,0.2,0.2,0.4,0.2,0.7c0,0.7-0.4,1.7-1.3,2.6c-1.8,2.2-3.9,2.3-7.6,2.3c-2.3,0-5,0-8.1,0.7
	c-1.6,0.4-3.1,0.7-4.4,1c3.8-2.7,9-5.9,13.7-7.4C582.2,77.5,584.8,77.9,585.5,78.9z"/>
<path class="st1" d="M547,365.6l10.8,4.9c-0.7,4.6-1.9,8.4-3.4,11.4c-1.6,3.1-3.5,5.4-5.8,6.9c-2.3,1.6-5.2,2.3-8.8,2.3
	c-4.3,0-7.9-1-10.6-2.8s-5.1-5.3-7.1-10c-2-4.8-3-10.9-3-18.4c0-10,1.7-17.6,5.2-22.9c3.5-5.3,8.5-8,14.9-8c5,0,9,1.5,11.8,4.6
	c2.9,3.1,5,7.8,6.4,14.1l-10.9,3.6c-0.4-1.8-0.8-3.2-1.2-4c-0.7-1.4-1.5-2.5-2.5-3.3c-1-0.7-2.1-1.2-3.3-1.1c-2.8,0-4.9,1.7-6.4,5.1
	c-1.1,2.5-1.7,6.5-1.7,11.9c0,6.7,0.7,11.3,2,13.7s3.2,3.7,5.6,3.7c2.4,0,4.1-1,5.3-3C545.6,372.3,546.4,369.5,547,365.6z"/>
<path class="st1" d="M543.3,245.9c1,3.3,0,6.8-2.5,9c-2.5,2.2-6.1,2.6-9.5,1c-5.5-2.6-10.7-3.1-21-4.1l-2.5-0.3
	c-11.8-1.2-28-2.9-56.7-2.9c-28.3,0-107.9,0.4-108.7,0.4l-0.4-3.5c0.8-0.2,20.2-4.2,32.7-4.6c3.6-0.1,11-0.4,20.3-0.9
	c21.9-1,55-2.5,68.5-2.5c6.6,0,12.9-0.1,18.9-0.3c11.4-0.3,22.1-0.5,32.2,0.3l3,0.2c7,0.6,12.6,1,16.8,2
	C541.2,241.3,542.7,244,543.3,245.9z M532.1,254.3c6.2,2.9,11.2-2.5,9.5-7.9s-11.6-5.8-27-7c-15.3-1.2-31.9,0-51,0
	s-76.3,2.9-88.8,3.3c-12.4,0.4-32.4,4.6-32.4,4.6s80.1-0.4,108.7-0.4s44.8,1.7,56.8,2.9C520.1,250.9,525.9,251.4,532.1,254.3
	L532.1,254.3z"/>
<path class="st0" d="M541.6,246.4c1.7,5.4-3.3,10.8-9.5,7.9c-6.2-2.9-12-3.3-24.1-4.6c-12-1.2-28.2-2.9-56.8-2.9
	s-108.7,0.4-108.7,0.4s19.9-4.1,32.4-4.6s69.7-3.3,88.8-3.3c19.1,0,35.7-1.2,51,0C530,240.6,540,241,541.6,246.4z M540.2,248.5
	c0-0.5-0.1-1.1-0.2-1.6c-1.2-3.9-10.1-4.6-22.4-5.6c-1-0.1-2-0.2-3-0.2c-9.9-0.8-20.6-0.6-31.9-0.3c-6.1,0.1-12.4,0.3-19,0.3
	c-13.5,0-46.5,1.5-68.4,2.4c-9.3,0.4-16.7,0.7-20.3,0.9c-3.2,0.1-7,0.5-10.8,1c25.9-0.1,68.1-0.3,87.1-0.3c28.8,0,45.1,1.7,57,2.9
	l2.5,0.3c10.4,1.1,16.1,1.6,22.1,4.5c2.1,1,4.2,0.8,5.7-0.5C539.6,251.3,540.2,249.9,540.2,248.5L540.2,248.5z"/>
<path class="st0" d="M540,246.9c0.2,0.5,0.2,1.1,0.2,1.6c0,1.4-0.6,2.8-1.6,3.7c-1.5,1.3-3.6,1.5-5.7,0.5c-6-2.8-11.7-3.4-22.1-4.5
	l-2.5-0.3c-11.9-1.2-28.2-2.9-57-2.9c-19,0-61.2,0.2-87.1,0.3c3.8-0.5,7.6-0.8,10.8-1c3.6-0.1,11-0.4,20.3-0.9
	c21.9-1,54.9-2.4,68.4-2.4c6.6,0,12.9-0.1,19-0.3c11.3-0.3,21.9-0.5,31.9,0.3c1,0.1,2,0.2,3,0.2C529.9,242.3,538.8,243,540,246.9z"
	/>
<path class="st1" d="M501.8,190.4c0.2-0.1,16.6-5.9,15.3-10.2c-2.4-7.8-11.5,4.1-13.5,6.7L501.8,190.4z M518.7,179.6
	c1.1,3.7-4,6.8-8,8.8c-2.7,1.3-5.5,2.5-8.3,3.6l-4.1,1.4l2.3-4.6c0.9-0.9,1.8-2,2.9-3.2c2.8-3.2,6.6-7.5,8.9-8c2-0.4,4.5-0.3,6,0.9
	C518.5,178.9,518.6,179.3,518.7,179.6L518.7,179.6z"/>
<path class="st1" d="M515.1,175.8c1,0.2,2.3,0.8,3.2,2.7c-1.5-1.2-4-1.3-6-0.9c-2.3,0.5-6.1,4.8-8.9,8c-1.1,1.2-2,2.3-2.9,3.2
	l1.5-2.9l0.2-0.2c5.2-6.7,9.1-9.9,12.1-9.9C514.6,175.8,514.9,175.8,515.1,175.8z"/>
<path class="st0" d="M517.1,180.1c1.3,4.4-15,10.2-15.3,10.2l1.8-3.6C505.6,184.2,514.7,172.3,517.1,180.1z M515.4,180.6
	c-0.1-0.4-0.4-1.3-0.9-1.3c-0.4-0.1-2.7,0-8.8,7.7c1.1-0.5,2.3-1,3.5-1.6C515.2,182.3,515.4,180.7,515.4,180.6L515.4,180.6z"/>
<path class="st0" d="M514.5,179.3c0.4,0.1,0.8,1,0.9,1.3c0,0.1-0.2,1.6-6.2,4.7c-1.2,0.6-2.4,1.1-3.5,1.6
	C511.8,179.3,514.1,179.2,514.5,179.3z"/>
<path class="st1" d="M505.8,87.5c1.6,0.7,4.1,2.5,3.9,7.1c-0.4,10.4-11.3,17-19.4,21c-8.2,4.1-9.8,7-12.2,12.5
	c-2.5,5.6-4.2,11-4.3,11.1l-3,9.1l-0.4-9.6c0-0.2,0-0.9,0-2c0-6.8,0.9-28.9,11.8-39.5C490.8,89,500.3,85,505.8,87.5z M508,94.5
	c0.4-9-12.3-8-24.6,4c-12.3,11.9-11.2,40.2-11.2,40.2s1.8-5.4,4.3-11.2c2.5-5.8,4.3-9,13-13.4C498.3,109.7,507.7,103.6,508,94.5
	L508,94.5z"/>
<path class="st0" d="M483.5,98.5c12.3-11.9,24.9-13,24.6-4s-9.8,15.2-18.4,19.5c-8.7,4.3-10.5,7.6-13,13.4s-4.3,11.2-4.3,11.2
	S471.2,110.5,483.5,98.5z M506.3,94.5c0-0.1,0-0.2,0-0.3c0-2.6-1.4-3.2-1.9-3.4c-1.8-0.8-4.6-0.5-7.9,0.9c-3.9,1.6-8,4.4-11.8,8.2
	c-3.3,3.2-7.7,9.9-9.7,23.5c-0.2,1.7-0.4,3.3-0.6,4.8c0.2-0.4,0.4-0.9,0.6-1.3c2.5-5.8,4.6-9.6,13.8-14.2
	C504.1,104.8,506.1,98.5,506.3,94.5z"/>
<path class="st0" d="M506.3,94.2c0,0.1,0,0.2,0,0.3c-0.2,4.1-2.2,10.4-17.5,18c-9.3,4.6-11.3,8.4-13.8,14.2
	c-0.2,0.5-0.4,0.9-0.6,1.3c0.1-1.5,0.3-3.2,0.6-4.8c2-13.6,6.4-20.3,9.7-23.5c3.9-3.8,8-6.6,11.8-8.2c3.3-1.3,6.1-1.7,7.9-0.9
	C504.9,90.9,506.3,91.6,506.3,94.2z"/>
<polygon class="st1" points="494.1,330.1 494.1,390.2 484.1,390.2 484.1,344.4 476.3,390.2 467.2,390.2 459.5,344.4 459.5,390.2 
	449.4,390.2 449.4,330.1 465.6,330.1 471.8,366.7 478,330.1 "/>
<rect x="428.4" y="330.1" class="st1" width="12.3" height="60.1"/>
<polygon class="st1" points="423.9,330.1 415.1,390.2 403.1,390.2 396.1,352.4 389.1,390.2 377.1,390.2 368.3,330.1 379.9,330.1 
	384.1,363.7 390.3,330.1 401.9,330.1 408.1,363.7 412.3,330.1 "/>
<path class="st1" d="M395,72.5c1.9,3.8,7.2,17.4-2.3,24.2c-9.4,6.8-18.5,4.9-26.5,0c-7.9-4.9-7.9-15.1-3.4-25s18.1-8.3,18.1-8.3
	c1.2,0.5,2.5,0.9,3.8,1.1C386.7,65,393.1,68.7,395,72.5z M386.3,77.4c0,0,0.4-1.5-1.1-3.8s-2.3-2.3-2.3-2.3s-9.1,0-12.1,6.4
	c-3,6.4,3,11.7,3,11.7s1.9-9.8,6.4-11S386.3,77.4,386.3,77.4z"/>
<path class="st1" d="M382.5,181.5c0,0,8.7,6.8,7.9,13.2s-11.3,14.4-19.3,11c-7.9-3.4-9.1-11.4-7.2-20.4
	C365.9,176.2,382.5,181.5,382.5,181.5z"/>
<path class="st1" d="M373.5,113.7c14.4,4.2,16.6,18.2,13.6,24.2s-19.7,26.1-23.8,33.7c-4.2,7.6-17.8,37.1-17.8,37.1l-7.2-1.9
	c0,0,3.4-35.2,4.5-47.3c1.1-12.1,2.6-23.5,4.9-27.2s3-6,3-6S359.1,109.6,373.5,113.7z M352.7,158l22.7-37.5c0,0-15.1,1.5-18.1,10.6
	S352.7,158,352.7,158L352.7,158z"/>
<path class="st0" d="M385.2,73.7c1.5,2.3,1.1,3.8,1.1,3.8s-1.5,0-6,1.1c-4.5,1.1-6.4,11-6.4,11s-6-5.3-3-11.7
	c3-6.4,12.1-6.4,12.1-6.4S383.7,71.4,385.2,73.7z"/>
<path class="st0" d="M375.3,120.6L352.7,158c0,0,1.5-17.8,4.5-26.8C360.2,122.1,375.3,120.6,375.3,120.6z"/>
<path class="st1" d="M364.6,361.8c1.1,2.6,1.6,5.6,1.6,8.9c0,3.7-0.7,7.3-2.1,10.7c-1.4,3.3-3.4,5.7-5.9,7.4
	c-2.5,1.7-5.7,2.5-9.6,2.5c-6.8,0-11.4-2-14-5.9s-4.1-8.9-4.4-15l11.7-1.1c0.2,2.9,0.8,5.1,1.5,6.6c1.3,2.4,3.1,3.6,5.4,3.6
	c1.7,0,3.1-0.6,4.1-1.9c0.9-1.2,1.4-2.8,1.4-4.3c0-1.5-0.5-3-1.4-4.2c-0.9-1.2-3-2.4-6.3-3.5c-5.4-1.8-9.2-4.3-11.5-7.3
	c-2.3-3-3.5-6.9-3.5-11.6c0-3,0.6-6,1.8-8.8c1.1-2.6,3-4.9,5.3-6.5c2.4-1.6,5.6-2.3,9.8-2.4c5.1,0,9,1.4,11.6,4.3
	c2.7,2.9,4.3,7.4,4.8,13.6l-11.6,1c-0.3-2.7-1-4.7-1.9-5.9c-1-1.2-2.3-1.8-4.1-1.8c-1.4,0-2.5,0.4-3.2,1.4c-0.7,1-1.1,2.1-1.1,3.3
	c0,0.9,0.3,1.8,0.9,2.6c0.6,0.8,2,1.5,4.1,2.2c5.4,1.7,9.2,3.5,11.5,5.3C361.8,356.8,363.5,359.1,364.6,361.8z"/>
<path class="st1" d="M312.2,114.5c8.7,0,32.5,3.8,28.7,18.5s-15.9,14.8-27.2,17c-11.3,2.3-11.3,12.1-6.4,21.2s3.8,18.9-2.6,28.7
	s-61.2,32.5-61.2,32.5l-6-7.6c0,0,32.9-21.6,39.3-25.7s7.9-11.3,7.2-15.5c-0.8-4.2-10.2-12.1-14-21.6
	C259.7,136.7,289.4,114.5,312.2,114.5z M325.1,130c1.5-3.8-1.9-7.2-1.9-7.2c-16.1-1.2-49.6,7.5-44.6,29.9
	c2.3,10.2,7.9,17.4,7.9,17.4s-7.2-21.2,6.4-29.1c3-1.7,7-5.2,13.1-6.8C314.1,132.2,324.2,132.2,325.1,130z"/>
<path class="st0" d="M323.2,122.8c0,0,3.4,3.4,1.9,7.2c-0.9,2.1-11,2.2-19,4.2c-6.2,1.6-10.2,5-13.1,6.8
	c-13.6,7.9-6.4,29.1-6.4,29.1s-5.7-7.2-7.9-17.4C273.6,130.3,307.1,121.6,323.2,122.8z"/>
<path class="st1" d="M305.9,361.8c1.1,2.6,1.6,5.6,1.6,8.9c0,3.7-0.7,7.3-2.1,10.7c-1.4,3.3-3.4,5.7-5.9,7.4
	c-2.5,1.7-5.7,2.5-9.6,2.5c-6.8,0-11.4-2-14-5.9c-2.6-4-4.1-8.9-4.4-15l11.7-1.1c0.2,2.9,0.8,5.1,1.6,6.6c1.3,2.4,3.1,3.6,5.4,3.6
	c1.7,0,3.1-0.6,4.1-1.9c0.9-1.2,1.4-2.8,1.4-4.3c0-1.5-0.5-3-1.4-4.2c-0.9-1.2-3-2.4-6.3-3.5c-5.4-1.8-9.2-4.3-11.5-7.3
	c-2.3-3-3.5-6.9-3.5-11.6c0-3,0.6-6,1.8-8.8c1.1-2.6,3-4.9,5.3-6.5c2.4-1.6,5.6-2.3,9.8-2.4c5.1,0,9,1.4,11.6,4.3
	c2.7,2.9,4.3,7.4,4.8,13.6l-11.6,1c-0.3-2.7-1-4.7-1.9-5.9c-1-1.2-2.3-1.8-4.1-1.8c-1.4,0-2.5,0.4-3.2,1.4c-0.7,1-1.1,2.1-1.1,3.3
	c0,0.9,0.3,1.8,0.9,2.6c0.6,0.8,2,1.5,4.1,2.2c5.4,1.7,9.2,3.5,11.5,5.3C303.1,356.8,304.9,359.1,305.9,361.8z"/>
<path class="st1" d="M263.7,372.8l5.9,17.4h-13.9l-6.6-18.4c-0.8-2.4-1.6-3.9-2.2-4.6c-0.9-0.9-1.9-1.4-3-1.4h-1.1v24.4h-12.3v-60.1
	H251c3.8,0,6.7,0.5,8.7,1.5c2,1,3.6,2.8,4.9,5.5c1.2,2.7,1.8,5.9,1.8,9.7c0,3.3-0.5,6.2-1.4,8.6c-0.9,2.4-2.2,4.4-3.9,5.9
	c-1.1,1-2.5,1.7-4.3,2.4c1.5,0.7,2.5,1.5,3.2,2.2c0.4,0.5,1.1,1.5,2,3.1C262.8,370.7,263.4,371.9,263.7,372.8z M253.3,351.7
	c0.5-1.1,0.8-2.3,0.8-3.5c0-1.9-0.4-3.4-1.2-4.5c-0.8-1-2.3-1.6-4.6-1.6h-5.4v12.2h5.2c0.6,0,1.6-0.3,3.3-0.8
	C252.1,353.4,252.8,352.8,253.3,351.7z"/>
<path class="st1" d="M178.5,172.4c0.3-0.3,16.4-22.4,29.9-28.7c13.6-6.4,25.3-7.9,24.2-14c-1.1-6.1-18.1-2.6-25.3,1.1
	c-7.2,3.8-16.6,11.7-21.2,19.7C181.6,158.3,178.6,172.1,178.5,172.4z M258.2,160.3c2.3,9.1-1.9,15.9-7.9,21.9s-20.4,17.8-20.4,25
	c0,7.2-1.9,12.5-1.9,12.5l-11-1.1l-1.5-14.8c0,0-9.4,7.9-21.2,7.9s-28-6.1-29.5-17.8c-1.5-11.7,2.6-36.7,15.5-51.1
	c12.8-14.4,27.2-21.9,38.2-24.6c11-2.7,25.7-0.8,26.5,9.8s-3,19.7-12.1,25.4c-9.1,5.7-16.2,7.9-23,11.3
	c-6.8,3.4-13.2,12.5-13.2,12.5c-0.4,1.9-5.3,11-0.8,16.3c4.5,5.3,14,6.1,20.4-5.7c6.4-11.7,11-25.7,21.2-30.6
	C247.7,152.3,256,151.2,258.2,160.3z M251.4,166.7l-4.5-4.5c0,0-9.8,3.4-13.6,11.4c-3.8,7.9-7.2,16.3-7.2,16.3s12.1-11.7,18.1-16.6
	C250.3,168.2,251.4,166.7,251.4,166.7L251.4,166.7z"/>
<path class="st0" d="M246.9,162.2l4.5,4.5c0,0-1.1,1.5-7.2,6.4c-6,4.9-18.1,16.6-18.1,16.6s3.4-8.3,7.2-16.3
	C237.1,165.6,246.9,162.2,246.9,162.2z"/>
<path class="st0" d="M232.5,129.6c1.1,6.1-10.6,7.6-24.2,14c-13.5,6.4-29.6,28.4-29.9,28.7c0.1-0.3,3.1-14.1,7.6-21.9
	c4.5-7.9,14-15.9,21.2-19.7C214.4,127,231.4,123.6,232.5,129.6z"/>
<polygon class="st1" points="223.8,376.6 223.8,390.2 190.2,390.2 190.2,330.1 223.2,330.1 223.2,342.9 202.5,342.9 202.5,352.5 
	221.7,352.5 221.7,364.8 202.5,364.8 202.5,376.6 "/>
<path class="st1" d="M199.8,10.6c8.7,4,14.5,17.4,11.6,29.7s-19.9,26.1-30,50.3s-14.5,30-19.2,69.8c-4.7,39.8-27.8,74.9-34,82.1
	c-19.7,23.2-69.9,32.6-93.6,10.5c-10.5-9.8-21.7-25.3-19.1-43.4s15.9-21,24.6-18.4s15.9,5.4,18.4,20.6C61,227,69.3,242.9,80.8,244
	c11.6,1.1,26.4-4,35.4-17.4c9-13.4,15.9-29.7,17.7-46.7c1.8-17,1.1-25,1.1-25s-4.7-52.1,4.3-83.6s17-43.1,28.9-52.8
	S191.1,6.6,199.8,10.6z M190.7,29.4c2.5-7.6-5.4-9.4-11.6-7.2S164,37.4,154.6,63.4c-9.4,26-10.5,57.9-10.5,57.9
	c6.6-17.9,11.2-33.4,20.6-51C177,47.1,188.2,37,190.7,29.4L190.7,29.4z"/>
<path class="st0" d="M179.2,22.2c6.1-2.2,14.1-0.4,11.6,7.2c-2.5,7.6-13.7,17.7-26,40.9c-9.4,17.6-14,33.1-20.6,51
	c0,0,1.1-31.8,10.5-57.9S173,24.3,179.2,22.2z"/>
<polygon class="st1" points="184.7,330.1 184.7,344.9 172.1,344.9 172.1,390.2 159.9,390.2 159.9,344.9 147.3,344.9 147.3,330.1 "/>
<path class="st1" d="M142.4,361.8c1.1,2.6,1.6,5.6,1.6,8.9c0,3.7-0.7,7.3-2.1,10.7c-1.4,3.3-3.4,5.7-5.9,7.4
	c-2.5,1.7-5.7,2.5-9.6,2.5c-6.8,0-11.4-2-14.1-5.9c-2.6-4-4.1-8.9-4.4-15l11.7-1.1c0.2,2.9,0.8,5.1,1.6,6.6c1.3,2.4,3.1,3.6,5.4,3.6
	c1.7,0,3.1-0.6,4.1-1.9c0.9-1.2,1.4-2.8,1.4-4.3c0-1.5-0.5-3-1.3-4.2c-0.9-1.2-3-2.4-6.3-3.5c-5.4-1.8-9.2-4.3-11.5-7.3
	c-2.3-3-3.5-6.9-3.5-11.6c0-3,0.6-6,1.8-8.8c1.1-2.6,3-4.9,5.3-6.5c2.4-1.6,5.6-2.3,9.8-2.4c5.1,0,9,1.4,11.6,4.3
	c2.7,2.9,4.3,7.4,4.8,13.6l-11.6,1c-0.3-2.7-1-4.7-1.9-5.9c-1-1.2-2.3-1.8-4.1-1.8c-1.4,0-2.5,0.4-3.2,1.4c-0.7,1-1.1,2.1-1.1,3.3
	c0,0.9,0.3,1.8,0.9,2.6c0.6,0.8,2,1.5,4.1,2.2c5.4,1.7,9.2,3.5,11.5,5.3C139.6,356.8,141.3,359.1,142.4,361.8z"/>
<path class="st1" d="M91.1,330.1l15,60.1H93.2l-2-9.9h-14l-1.9,9.9H62.8l14.9-60.1H91.1z M88.7,367.3l-4.4-21.6l-4.4,21.6H88.7z"/>
<polygon class="st1" points="58.9,330.1 58.9,390.2 48.9,390.2 48.9,344.4 41.1,390.2 32,390.2 24.3,344.4 24.3,390.2 14.9,390.2 
	14.9,330.1 30.4,330.1 36.6,366.7 42.8,330.1 "/>
<rect x="14.2" y="330.1" class="st1" width="0.7" height="60.1"/>
</svg>
