<?xml version="1.0" encoding="UTF-8"?><svg xmlns="http://www.w3.org/2000/svg" xmlns:xlink="http://www.w3.org/1999/xlink" viewBox="0 0 1482.29 601.82"><defs><style>.i{fill:url(#e);}.j{fill:url(#d);}.k{fill:url(#f);}.l{fill:url(#c);}.m{fill:url(#b);}.n{fill:none;}.o{fill:#1c75bc;}.p,.q{fill:#262262;}.q{font-family:AptlyExtraBold, Aptly;font-size:549.86px;}</style><linearGradient id="b" x1="1312.67" y1="48.11" x2="1312.67" y2="444.62" gradientTransform="matrix(1, 0, 0, 1, 0, 0)" gradientUnits="userSpaceOnUse"><stop offset="0" stop-color="#2484c6"/><stop offset="1" stop-color="#2b3990"/></linearGradient><linearGradient id="c" x1="1039.39" y1="45.36" x2="1039.39" y2="436.9" xlink:href="#b"/><linearGradient id="d" x1="800.48" y1="152.58" x2="800.48" y2="414.01" xlink:href="#b"/><linearGradient id="e" x1="567.9" y1="152.58" x2="567.9" xlink:href="#b"/><linearGradient id="f" x1="278.68" y1="148.74" x2="278.68" y2="391.73" xlink:href="#b"/></defs><g id="a"><g><text class="q" transform="translate(172.28 501.74)"><tspan x="0" y="0">swiML</tspan></text><path class="m" d="M1393.23,434.06v-2.14c0-14.3-12.1-26.4-26.4-26.4h-26.39c-7.15,0-12.1-5.5-12.1-12.65V74.5c0-14.3-12.1-26.39-26.39-26.39h-43.44c-14.3,0-26.4,12.1-26.4,26.39V440.88c18.07,2.36,38.45,3.73,62.02,3.73,41.24,0,72.73-4.18,99.09-10.56Z"/><path class="n" d="M1099.6,138.29c-6.6,0-12.1,5.5-12.1,12.1v243.59c8.32,3.18,16.3,6.5,24.19,9.86V150.39c0-6.6-5.5-12.1-12.1-12.1Z"/><path class="n" d="M979.18,138.29c-6.6,0-12.1,5.5-12.1,12.1v219.81c8.5,.34,16.54,.87,24.19,1.56V150.39c0-6.6-5.5-12.1-12.1-12.1Z"/><path class="l" d="M967.08,370.2V150.39c0-6.6,5.5-12.1,12.1-12.1s12.1,5.5,12.1,12.1v221.38c40.68,3.72,70.13,12.25,96.23,22.21V150.39c0-6.6,5.5-12.1,12.1-12.1s12.1,5.5,12.1,12.1v253.45c29,12.34,56.86,25.17,96.23,33.06V161.38c0-72.58-31.34-116.02-105.03-116.02-13.2,0-25.84,2.75-34.64,5.5-7.15,2.2-15.4,4.4-20.34,4.4s-13.2-2.2-20.35-4.4c-8.8-2.75-18.69-5.5-31.89-5.5s-25.29,2.75-32.44,4.95c-7.15,2.2-15.95,4.95-22,4.95-7.15,0-9.9-1.65-15.95-3.85l-2.75-1.1c-4.95-2.2-12.65-4.95-19.25-4.95-19.25,0-32.44,14.3-32.44,31.34V375.29c20.96-3.45,45.11-5.52,74.1-5.52,7.71,0,15.07,.15,22.13,.43Z"/><path class="j" d="M846.67,178.98c0-12.65-12.1-26.4-26.4-26.4h-39.59c-14.3,0-26.4,12.1-26.4,26.4v235.03c28.99-12.06,55.73-25.09,92.38-33.86V178.98Z"/><path class="o" d="M780.69,130.59h39.59c14.3,0,26.4-12.1,26.4-26.39v-29.69c0-12.65-12.1-26.39-26.4-26.39h-39.59c-14.3,0-26.4,12.1-26.4,26.39v29.69c0,14.3,12.1,26.39,26.4,26.39Z"/><path class="i" d="M728.46,424.04c1.42-7.64,2.19-15.81,2.19-24.56V178.98c0-14.3-11.55-26.4-25.84-26.4h-40.14c-14.3,0-26.39,12.1-26.39,26.4v233.7c0,6.6-5.5,12.1-12.1,12.1s-12.1-5.5-12.1-12.1V178.98c0-12.65-12.1-26.4-26.39-26.4h-39.59c-14.3,0-26.39,12.1-26.39,26.4v233.7c0,6.6-5.5,12.1-12.1,12.1s-12.1-5.5-12.1-12.1V178.98c0-12.65-12.1-26.4-26.39-26.4h-39.59c-14.3,0-26.39,12.1-26.39,26.4v220.5c0,.31,.02,.6,.02,.91,49.69,20.68,92.69,44.23,190.62,44.23,60.23,0,99.68-8.91,132.69-20.58Z"/><path class="k" d="M383.16,382.98c0-54.44-40.14-70.93-69.28-83.58l-23.09-9.9c-16.5-7.15-24.19-17.6-24.19-34.64v-7.7c0-6.6,5.5-12.1,12.1-12.1s12.1,5.5,12.1,12.1c0,17.6,10.45,25.29,26.39,25.29h39.59c14.3,0,26.39-12.1,26.39-26.39,0-51.69-37.94-97.33-104.48-97.33-59.94,0-104.48,43.44-104.48,101.73v20.34c0,54.44,41.24,71.48,69.28,83.58l22.54,9.9c4.94,2.03,8.97,4.11,12.26,6.38,45.14,2.66,77.14,10.95,104.86,21.07v-8.75Z"/><path class="p" d="M1.57,592.85c2.81,.17,5.29,0,7.47-.5-8.36,.11-11.11,.28-7.47,.5Z"/><path class="p" d="M1258.51,501.75h108.32c14.3,0,26.4-12.1,26.4-26.39v-41.3c-26.36,6.38-57.85,10.56-99.09,10.56-23.58,0-43.96-1.37-62.02-3.73v34.48c0,14.3,12.1,26.39,26.4,26.39Z"/><path class="p" d="M1111.7,475.36c0,12.65,12.1,26.39,26.39,26.39h43.44c14.3,0,26.4-12.1,26.4-26.39v-38.46c-39.37-7.9-67.23-20.72-96.23-33.06v71.52Z"/><path class="p" d="M897.25,501.75h43.44c14.3,0,26.39-12.1,26.39-26.39v-105.16c-7.06-.28-14.42-.43-22.13-.43-29,0-53.14,2.08-74.1,5.52v100.07c0,14.3,12.1,26.39,26.4,26.39Z"/><path class="p" d="M991.28,475.36c0,12.65,12.1,26.39,26.4,26.39h43.44c14.3,0,26.4-12.1,26.4-26.39v-81.38c-26.1-9.97-55.55-18.5-96.23-22.21v103.6Z"/><path class="p" d="M780.69,501.75h39.59c14.3,0,26.4-12.1,26.4-26.39v-95.22c-36.65,8.78-63.39,21.8-92.38,33.86v61.35c0,14.3,12.1,26.39,26.4,26.39Z"/><path class="p" d="M501.91,505.6c18.7,0,35.74-3.3,49.49-12.65l6.6-4.4c4.4-3.3,6.6-4.4,9.9-4.4,4.4,0,6.05,1.65,9.9,4.4l7.15,4.4c13.75,9.35,30.24,12.65,49.49,12.65,39.13,0,83.77-26.33,94.03-81.57-33.01,11.67-72.46,20.58-132.69,20.58-97.93,0-140.93-23.55-190.62-44.23,.42,64.9,44.76,105.22,96.76,105.22Z"/><path class="p" d="M290.78,397.83v9.35c0,6.6-5.5,12.1-12.1,12.1s-12.1-5.5-12.1-12.1c0-14.3-7.7-25.84-26.39-25.84h-39.59c-14.3,0-26.39,12.1-26.39,26.4,0,57.19,39.59,97.88,104.48,97.88,52.79,0,104.48-41.24,104.48-99.53v-14.34c-27.72-10.12-59.72-18.41-104.86-21.07,9.18,6.33,12.48,14.21,12.48,27.16Z"/></g></g><g id="g"/><g id="h"/></svg>