<?xml version="1.0" encoding="UTF-8"?><svg id="Layer_1" xmlns="http://www.w3.org/2000/svg" viewBox="0 0 1030.59 604.59"><defs><style>.cls-1{fill:#231f20;}.cls-2,.cls-3{fill:#262262;}.cls-3{stroke:#fff;stroke-miterlimit:10;stroke-width:2px;}</style></defs><path class="cls-2" d="M897.69,531.63c-67.56,0-101.75-14.66-134.81-28.83-31.05-13.31-60.37-25.88-120.44-25.88s-89.39,12.57-120.44,25.88c-33.06,14.18-67.25,28.83-134.81,28.83s-101.75-14.66-134.81-28.83c-31.05-13.31-60.37-25.88-120.44-25.88-54.66,0-83.86,10.41-112.08,22.32-4.63,1.95-9.96-.19-11.94-4.8l-7.19-16.77c-2-4.66,.19-10.03,4.86-12,30.65-12.95,64.53-25.22,126.35-25.22,67.56,0,101.75,14.66,134.81,28.83,31.05,13.31,60.37,25.88,120.44,25.88s89.39-12.57,120.44-25.88c33.06-14.18,67.25-28.83,134.81-28.83s101.75,14.66,134.81,28.83c31.05,13.31,60.37,25.88,120.44,25.88,54.67,0,83.87-10.41,112.08-22.32,4.63-1.95,9.96,.19,11.94,4.8l7.19,16.77c2,4.66-.19,10.03-4.86,12-30.65,12.95-64.53,25.22-126.36,25.22Z"/><path class="cls-2" d="M897.69,604.59c-67.56,0-101.75-14.66-134.81-28.83-29.5-12.65-57.44-24.63-111.68-25.79-4.86-.1-8.76-4.04-8.76-8.9v-18.68c0-4.97,4.09-9.01,9.06-8.91,61.62,1.25,94.2,15.22,125.75,28.74,31.05,13.31,60.37,25.88,120.44,25.88,54.8,0,84.01-10.46,112.28-22.4,4.52-1.91,9.72,.18,11.66,4.69l7.36,17.17c1.94,4.53-.16,9.78-4.7,11.7-30.71,12.98-64.61,25.33-126.6,25.33Z"/><path class="cls-3" d="M897.69,568.11c-67.56,0-101.75-14.66-134.81-28.83-31.05-13.31-60.37-25.88-120.44-25.88s-89.39,12.57-120.44,25.88c-31.49,13.5-64,27.44-125.4,28.74-5.17,.11-9.41-4.09-9.41-9.26v-17.97c0-5.01,4-9.14,9.01-9.25,54.07-1.19,81.98-13.16,111.43-25.78,33.06-14.18,67.25-28.83,134.81-28.83s101.75,14.66,134.81,28.83c31.05,13.31,60.37,25.88,120.44,25.88,54.59,0,83.78-10.38,111.96-22.27,4.7-1.98,10.11,.19,12.12,4.87l7.08,16.52c2.03,4.73-.19,10.18-4.93,12.18-30.61,12.93-64.49,25.17-126.23,25.17Z"/><g><path class="cls-1" d="M513.82,87.5h33.16c11.97,0,22.11-12.42,22.11-27.1V29.92c0-12.98-10.13-27.1-22.11-27.1h-33.16c-11.97,0-22.11,12.42-22.11,27.1v30.48c0,14.68,10.13,27.1,22.11,27.1Z"/><path class="cls-1" d="M500.44,445.21c19.4-8.32,40.33-17.28,68.64-23.28V137.18c0-12.98-10.13-27.1-22.11-27.1h-33.16c-11.97,0-22.11,12.42-22.11,27.1V441.45c0,2.46,.31,4.84,.84,7.13,2.61-1.1,5.23-2.23,7.89-3.37Z"/></g><path class="cls-1" d="M642.44,414.9c9.78,0,18.91,.31,27.5,.87V107.82c0-6.78,4.61-12.42,10.13-12.42s10.13,5.64,10.13,12.42V417.66c34.57,4.27,59.16,12.93,80.59,21.78V107.82c0-6.78,4.6-12.42,10.13-12.42s10.13,5.64,10.13,12.42V441.45c0,2.32,.34,4.68,.94,6.99,19.1,8.08,37.66,15.13,64.41,18.7,8.74-3.64,15.24-13.93,15.24-25.68V119.11c0-74.51-26.25-119.11-87.96-119.11-11.05,0-21.64,2.82-29.01,5.64-5.99,2.26-12.9,4.52-17.04,4.52s-11.05-2.26-17.04-4.52c-7.37-2.82-15.66-5.64-26.71-5.64s-21.18,2.82-27.17,5.08-13.36,5.08-18.42,5.08c-5.99,0-8.29-1.69-13.36-3.95l-2.3-1.13c-4.14-2.26-10.59-5.08-16.12-5.08-16.12,0-27.17,14.68-27.17,32.18V418.37c15.44-2.17,32.91-3.46,53.09-3.46Z"/><path class="cls-1" d="M914.02,468.54h11.65c38.07-3.11,60.28-12.62,85.26-23.33l15.91-6.82v-41.54c0-14.68-10.13-27.1-22.11-27.1h-22.11c-5.99,0-10.13-5.64-10.13-12.98V29.92c0-14.68-10.13-27.1-22.11-27.1h-36.38c-11.97,0-22.11,12.42-22.11,27.1V441.45c0,14.68,10.13,27.1,22.11,27.1Z"/><path class="cls-1" d="M93.36,383.87c-5.53,0-10.13-5.64-10.13-12.42,0-14.68-6.45-26.53-22.11-26.53H27.96c-11.97,0-22.11,12.42-22.11,27.1,0,23.46,5.31,44.2,15.13,60.67,27.03-9.73,60.56-17.78,110.95-17.78,14.4,0,27.4,.67,39.29,1.83,6.08-13.66,9.62-29.32,9.62-46.41v-23.71c0-55.89-33.62-72.82-58.03-85.8l-19.34-10.16c-13.82-7.34-20.26-18.06-20.26-35.56v-7.9c0-6.78,4.61-12.42,10.13-12.42s10.13,5.64,10.13,12.42c0,18.06,8.75,25.97,22.11,25.97h33.16c11.97,0,22.11-12.42,22.11-27.1,0-53.06-31.78-99.92-87.5-99.92-50.2,0-87.5,44.6-87.5,104.43v20.89c0,55.89,34.54,73.39,58.03,85.81l18.88,10.16c15.66,7.9,20.72,16.37,20.72,34.43v9.6c0,6.77-4.61,12.42-10.13,12.42Z"/><path class="cls-1" d="M273.94,445.21c14.66,6.29,28.37,12.16,44.88,16.57,1-.72,1.99-1.46,2.95-2.26l5.53-4.52c3.68-3.39,5.53-4.52,8.29-4.52,3.68,0,5.07,1.69,8.29,4.52l5.99,4.52c5.32,4.43,11.13,7.52,17.43,9.59,6.2,.34,12.81,.52,19.89,.52,9.28,0,17.73-.31,25.54-.88,30.68-10.82,59.18-45.18,59.18-105.19V137.18c0-14.68-9.67-27.1-21.64-27.1h-33.62c-11.97,0-22.11,12.42-22.11,27.1v239.92c0,6.77-4.6,12.42-10.13,12.42s-10.13-5.65-10.13-12.42V137.18c0-12.98-10.13-27.1-22.11-27.1h-33.16c-11.97,0-22.11,12.42-22.11,27.1v239.92c0,6.77-4.61,12.42-10.13,12.42s-10.13-5.65-10.13-12.42V137.18c0-12.98-10.13-27.1-22.11-27.1h-33.16c-11.97,0-22.11,12.42-22.11,27.1v226.37c0,23.15,4.43,43.28,12.03,59.72,25.31,5.95,44.64,14.22,62.64,21.94Z"/></svg>