<?xml version="1.0" encoding="UTF-8"?><svg id="Layer_1" xmlns="http://www.w3.org/2000/svg" viewBox="0 0 1239.99 601.84"><defs><style>.cls-1{fill:#fff;}.cls-2{fill:#231f20;}.cls-3{fill:#3c409a;}</style></defs><g><path class="cls-2" d="M212.54,366.91c0,59.29-52.57,101.23-106.27,101.23C40.28,468.14,0,426.75,0,368.58c0-14.54,12.3-26.85,26.85-26.85h40.27c19.02,0,26.85,11.75,26.85,26.29,0,6.71,5.59,12.3,12.3,12.3s12.3-5.59,12.3-12.3v-9.51c0-17.9-6.15-26.29-25.17-34.12l-22.93-10.07C41.95,302.03,0,284.69,0,229.32v-20.69C0,149.33,45.31,105.15,106.27,105.15c67.68,0,106.27,46.42,106.27,99,0,14.54-12.3,26.85-26.85,26.85h-40.27c-16.22,0-26.85-7.83-26.85-25.73,0-6.71-5.59-12.3-12.3-12.3s-12.3,5.59-12.3,12.3v7.83c0,17.34,7.83,27.96,24.61,35.24l23.49,10.07c29.64,12.86,70.47,29.64,70.47,85.01v23.49Z"/><path class="cls-2" d="M566.02,360.19c0,73.27-52.57,107.95-97.88,107.95-19.58,0-36.36-3.36-50.34-12.86l-7.27-4.48c-3.92-2.8-5.59-4.47-10.07-4.47-3.36,0-5.59,1.12-10.07,4.47l-6.71,4.48c-13.98,9.51-31.32,12.86-50.34,12.86-53.13,0-98.44-41.39-98.44-107.95V135.91c0-14.54,12.3-26.85,26.85-26.85h40.27c14.54,0,26.85,13.98,26.85,26.85v237.71c0,6.71,5.59,12.31,12.31,12.31s12.3-5.59,12.3-12.31V135.91c0-14.54,12.3-26.85,26.85-26.85h40.27c14.54,0,26.85,13.98,26.85,26.85v237.71c0,6.71,5.59,12.31,12.3,12.31s12.3-5.59,12.3-12.31V135.91c0-14.54,12.31-26.85,26.85-26.85h40.83c14.54,0,26.29,12.31,26.29,26.85v224.28Z"/><path class="cls-2" d="M684.04,59.85c0,14.54-12.3,26.85-26.85,26.85h-40.27c-14.54,0-26.85-12.3-26.85-26.85V29.64c0-14.54,12.3-26.85,26.85-26.85h40.27c14.54,0,26.85,13.98,26.85,26.85v30.2Zm0,377.53c0,14.54-12.3,26.85-26.85,26.85h-40.27c-14.54,0-26.85-12.31-26.85-26.85V135.91c0-14.54,12.3-26.85,26.85-26.85h40.27c14.54,0,26.85,13.98,26.85,26.85V437.38Z"/><path class="cls-2" d="M1051.5,118.01V437.38c0,14.54-12.31,26.85-26.85,26.85h-44.19c-14.54,0-26.85-13.98-26.85-26.85V106.83c0-6.71-5.59-12.3-12.3-12.3s-12.31,5.59-12.31,12.3V437.38c0,14.54-12.31,26.85-26.85,26.85h-44.19c-14.54,0-26.85-13.98-26.85-26.85V106.83c0-6.71-5.59-12.3-12.3-12.3s-12.31,5.59-12.31,12.3V437.38c0,14.54-12.3,26.85-26.85,26.85h-44.18c-14.54,0-26.85-12.31-26.85-26.85V31.88c0-17.34,13.42-31.88,33-31.88,6.71,0,14.54,2.8,19.58,5.03l2.8,1.12c6.15,2.24,8.95,3.92,16.22,3.92,6.15,0,15.1-2.8,22.37-5.03,7.27-2.24,19.58-5.03,33-5.03s23.49,2.8,32.44,5.59c7.27,2.24,15.66,4.48,20.7,4.48s13.42-2.24,20.69-4.48c8.95-2.8,21.81-5.59,35.24-5.59,74.95,0,106.83,44.19,106.83,118.01Z"/><path class="cls-2" d="M1173.99,353.48c0,7.27,5.03,12.86,12.31,12.86h26.85c14.54,0,26.85,12.31,26.85,26.85v44.19c0,14.54-12.31,26.85-26.85,26.85h-110.18c-14.54,0-26.85-12.31-26.85-26.85V29.64c0-14.54,12.3-26.85,26.85-26.85h44.18c14.54,0,26.85,12.3,26.85,26.85V353.48Z"/></g><rect class="cls-1" y="471.99" width="1239.99" height="129.85"/><path class="cls-1" d="M0,471.99c155,0,155-66.45,310-66.45s155,66.46,310,66.46c155,0,155-66.46,310-66.46s155.31,66.46,310,66.46"/><path class="cls-3" d="M1239.99,521.22c0,5.7-4.61,9.69-10.25,8.88,0,0-112.7-16.25-152.73-33.4-37.91-16.24-73.73-31.58-147.01-31.58s-108.99,15.33-146.84,31.55c-40.02,17.16-81.41,34.9-163.16,34.91-81.76,0-123.14-17.74-163.17-34.9-37.84-16.23-73.59-31.55-146.83-31.55s-108.99,15.32-146.83,31.55c-40.02,17.16-152.91,33.42-152.91,33.42-5.64,.81-10.25-3.18-10.25-8.88v-20.72c0-5.7,4.62-11.01,10.26-11.8,0,0,98.73-13.88,136.58-30.11,40.02-17.16,81.41-34.9,163.16-34.9s123.14,17.74,163.16,34.91c37.84,16.23,73.59,31.55,146.83,31.55,73.24,0,108.99-15.33,146.83-31.55,40.02-17.16,81.41-34.9,163.16-34.9s123.24,17.76,163.33,34.93c37.86,16.21,136.41,30.08,136.41,30.08,5.64,.79,10.26,6.11,10.26,11.8v20.72Z"/><path class="cls-3" d="M1239.99,559.58c0,2.75-2.23,4.68-4.95,4.29,0,0-118-17.01-158.04-34.16-37.91-16.24-73.73-31.58-147.01-31.58s-108.99,15.33-146.84,31.55c-40.02,17.16-81.41,34.9-163.16,34.91-81.76,0-123.14-17.74-163.17-34.9-37.84-16.23-141.88-30.86-141.88-30.86-2.72-.38-4.95-2.95-4.95-5.7v-31.44c0-2.75,2.23-4.68,4.95-4.29,0,0,118.19,17.03,158.21,34.19,37.84,16.23,73.59,31.55,146.83,31.55,73.25,0,108.99-15.33,146.83-31.55,40.02-17.16,81.41-34.9,163.16-34.9s123.24,17.76,163.33,34.93c37.86,16.21,141.72,30.83,141.72,30.83,2.72,.38,4.95,2.95,4.95,5.7v31.44Z"/><path class="cls-3" d="M1239.99,592.81c0,2.75-2.23,4.68-4.95,4.29,0,0-118-17.01-158.04-34.16-37.91-16.24-73.73-31.58-147.01-31.58s-109.35,15.31-146.76,31.52c-39.64,17.18-158.28,34.23-158.28,34.23-2.72,.39-4.95-1.54-4.95-4.29v-31.44c0-2.75,2.23-5.31,4.95-5.69,0,0,104.4-14.62,141.81-30.83,39.64-17.17,80.63-34.93,163.24-34.93s123.24,17.76,163.33,34.93c37.86,16.21,141.72,30.83,141.72,30.83,2.72,.38,4.95,2.95,4.95,5.7v31.44Z"/></svg>