<?xml version="1.0" encoding="UTF-8"?>
<svg width="383.4mm" height="180.4mm" inkscape:version="1.0.2 (e86c870879, 2021-01-15, custom)" sodipodi:docname="Apache_Xerxes_logo.svg" version="1.1" viewBox="0 0 383.4 180.4" xmlns="http://www.w3.org/2000/svg" xmlns:cc="http://creativecommons.org/ns#" xmlns:dc="http://purl.org/dc/elements/1.1/" xmlns:inkscape="http://www.inkscape.org/namespaces/inkscape" xmlns:rdf="http://www.w3.org/1999/02/22-rdf-syntax-ns#" xmlns:sodipodi="http://sodipodi.sourceforge.net/DTD/sodipodi-0.dtd" xmlns:xlink="http://www.w3.org/1999/xlink">
 <defs>
  <linearGradient id="cvfc" inkscape:collect="always">
   <stop style="stop-color:#0577c6" offset="0"/>
   <stop style="stop-color:#004da2" offset="1"/>
  </linearGradient>
  <linearGradient id="cvfd" x1="-48.49" x2="116.2" y1="-105.8" y2="99.24" gradientTransform="matrix(.2646 0 0 .2646 -77.24 -145.1)" gradientUnits="userSpaceOnUse" inkscape:collect="always">
   <stop style="stop-color:#fae152" offset="0"/>
   <stop style="stop-color:#f30503" offset=".3107"/>
   <stop style="stop-color:#e40a83" offset=".5939"/>
   <stop style="stop-color:#057ac9" offset="1"/>
  </linearGradient>
  <linearGradient id="cvfb" x1="99.96" x2="99.96" y1="-83.23" y2="-12.7" gradientUnits="userSpaceOnUse" inkscape:collect="always">
   <stop style="stop-color:#0577c6" offset="0"/>
   <stop style="stop-color:#004da2" offset="1"/>
  </linearGradient>
  <linearGradient id="cvfe" x1="99.96" x2="99.96" y1="-83.23" y2="-12.7" gradientUnits="userSpaceOnUse" xlink:href="#cvfc" inkscape:collect="always"/>
  <linearGradient id="cvfa" x1="441" x2="370.7" y1="68.6" y2="1646" gradientUnits="userSpaceOnUse" xlink:href="#cvfc" inkscape:collect="always"/>
 </defs>
 <sodipodi:namedview id="cvff" bordercolor="#666666" borderopacity="1.0" fit-margin-bottom="0" fit-margin-left="0" fit-margin-right="0" fit-margin-top="0" inkscape:current-layer="text7179" inkscape:cx="607.24786" inkscape:cy="127.59505" inkscape:document-rotation="0" inkscape:document-units="mm" inkscape:pageopacity="0.0" inkscape:pageshadow="2" inkscape:snap-global="false" inkscape:window-height="1014" inkscape:window-maximized="1" inkscape:window-width="1920" inkscape:window-x="0" inkscape:window-y="36" inkscape:zoom="0.49497475" pagecolor="#ffffff" showgrid="false"/>
 <title>Apache Xerxes logo</title>
 <metadata>
  <rdf:RDF>
   <cc:Work rdf:about="">
    <dc:format>image/svg+xml</dc:format>
    <dc:type rdf:resource="http://purl.org/dc/dcmitype/StillImage"/>
    <dc:title>Apache Xerxes logo</dc:title>
   </cc:Work>
  </rdf:RDF>
 </metadata>
 <g transform="translate(121 186.9)" inkscape:groupmode="layer" inkscape:label="Layer 1">
  <path d="m-78.21-186.9c-0.4419 0.0106-0.8181 0.11-1.101 0.3033-0.8902 0.609-2.178 3.509-2.892 6.513-0.4758 2.001-0.7909 2.733-2.033 4.723-2.103 3.366-2.939 5.186-3.189 6.931-0.3908 2.734 0.904 4.64 4.957 7.296 0.6688 0.4382 1.324 0.8564 1.456 0.9297 0.3582 0.1985 0.2367 0.3946-0.3111 0.5013-0.3403 0.0663-0.9283-0.0413-1.951-0.356-1.517-0.4669-2.232-0.5397-3.589-0.3664-1.173 0.1498-3.462 0.9367-4.917 1.69-1.596 0.8262-2.462 1.554-3.331 2.799-0.3557 0.5096-0.8284 1.108-1.051 1.331-0.5365 0.5373-0.8353 1.191-1.02 2.232-0.1116 0.6304-0.2862 1.062-0.6573 1.627-0.6474 0.9853-0.764 1.372-0.678 2.239 0.05628 0.5671 0.0088 0.7885-0.2403 1.129-0.9903 1.352-1.097 2.153-0.679 5.114 0.5041 3.573 0.5126 3.607 1.252 4.845 0.1522 0.255 0.3375 0.9207 0.4113 1.479 0.07381 0.5583 0.2048 1.195 0.2915 1.415 0.09913 0.2517 0.4817 0.7251 1.03 1.276 2.377 2.386 3.852 2.815 6.502 1.892 1.451-0.5057 3.03-1.35 6.387-3.414 1.429-0.8786 3.155-1.882 3.835-2.229 1.174-0.5994 2.45-1.012 2.616-0.847 0.07522 0.0752-4.96 2.262-7.542 4.928-1.187 1.226 0.6146 1.487 0.1493 2.388l2.262 1.452c0.9226-0.4817 1.85-0.2824 3.077-1.473 2.379-2.308 4.278-5.069 4.341-5.006 0.09963 0.0996 0.03387 0.6029-0.1514 1.16-0.2711 0.8146-1.259 2.611-2.954 5.374-2.026 3.302-2.868 4.881-3.37 6.32-0.5047 1.448-0.5873 2.627-0.2449 3.487 0.2387 0.5991 0.3388 0.715 1.727 1.993 1.744 1.606 1.992 1.731 3.59 1.807 0.9618 0.0458 1.245 0.1219 2.065 0.5571 1.007 0.5343 1.16 0.5706 4.39 1.026 2.979 0.4202 3.751 0.3171 5.113-0.6806 0.341-0.2496 0.5627-0.3016 1.055-0.248 0.856 0.0932 1.376-0.0548 2.292-0.6522 0.5515-0.3598 1.05-0.5674 1.687-0.7018 1.113-0.2348 1.672-0.492 2.206-1.016 0.2262-0.222 0.7784-0.6529 1.227-0.9576 1.638-1.112 2.269-2.022 3.068-4.421 1.118-3.358 1.219-4.659 0.5307-6.868-0.3213-1.031-0.4285-1.609-0.3617-1.952 0.1067-0.5478 0.3022-0.6693 0.5007-0.3111 0.07327 0.1322 0.492 0.788 0.9302 1.457 2.656 4.053 4.572 5.355 7.292 4.954 1.783-0.2631 3.456-1.019 6.631-2.997 2.312-1.44 2.98-1.735 5.028-2.222 1.959-0.4658 4.179-1.279 5.289-1.936 1.031-0.6112 1.201-0.7814 1.404-1.407 0.3408-1.051-0.02315-2.512-1.057-4.245-0.7742-1.297-3.079-3.724-4.698-4.948-1.403-1.06-3.675-2.427-5.093-3.066-1.564-0.7045-5.013-1.856-6.624-2.212-2.994-0.6608-6.767-1.013-10.29-0.9596-2.868 0.0432-4.294 0.2195-5.89 0.7281-1.281 0.4083-1.748 0.4833-1.794 0.2889-0.01591-0.0674 0.06676-0.2182 0.184-0.3354 0.1208-0.1208 0.2274-0.4925 0.246-0.8578 0.01798-0.3545 0.09357-0.7054 0.1679-0.7798 0.2539-0.2539 2.65-1.45 4.061-2.027 1.875-0.7667 3.626-1.097 5.978-1.128 1.936-0.0255 3.06 0.0619 3.975 0.3178a0.6615 0.6615 0 0 0 0.6568 0.5896 0.6615 0.6615 0 0 0 0.6408-0.5023c0.06751-0.0722 0.07131-0.1366 0.01809-0.2119a0.6615 0.6615 0 0 0-0.6589-0.6087 0.6615 0.6615 0 0 0-0.5581 0.3075c-1.281-0.1545-3.327-0.2714-4.759-0.2351-2.676 0.0678-4.497 0.598-7.911 2.303l-1.646 0.8227-1.085-1.106 0.6878-1.334c0.8361-1.622 1.559-3.35 1.954-4.669 0.5781-1.929 0.6635-3.723 0.3478-7.31-0.03956-0.4494-0.07948-0.8152-0.1209-1.123a0.6615 0.6615 0 0 0 0.2393-0.508 0.6615 0.6615 0 0 0-0.6615-0.6615 0.6615 0.6615 0 0 0-0.6615 0.6615 0.6615 0.6615 0 0 0 0.6553 0.6609c0.2456 0.8528 0.3703 2.059 0.384 3.736 0.02473 3.046-0.5153 5.165-2.156 8.463-0.4669 0.9382-0.9192 1.776-1.005 1.863-0.08551 0.0866-0.4625 0.15-0.8377 0.1406-0.454-0.0113-0.758 0.0588-0.909 0.2098-0.2773 0.2773-0.5378 0.2369-0.5349-0.0832 0.0012-0.1304 0.2297-1.097 0.508-2.147 0.2783-1.051 0.5761-2.484 0.6615-3.185 0.3468-2.849-0.08461-8.576-0.9302-12.35-0.9745-4.351-2.842-8.502-5.274-11.72-1.236-1.636-3.649-3.924-4.974-4.715-1.307-0.7808-2.597-1.187-3.569-1.163z" style="fill:url(#cvfd);stroke-width:.1236" inkscape:connector-curvature="0"/>
  <g transform="scale(.9358 1.069)" style="stroke-width:4.946px">
   <path d="m-42.15-48.76q0-15.37 10.47-26.11 10.61-10.88 25.57-10.88 14.42 0 24.89 10.61 10.47 10.61 10.47 25.3 0 2.992-0.952 8.296h-53.18q1.632 6.12 6.8 10.2 5.304 3.944 11.56 3.944 9.792 0 15.23-8.84h18.09q-3.128 10.34-12.51 17.14-9.248 6.8-20.4 6.8-14.96 0-25.57-10.61-10.47-10.61-10.47-25.84zm16.86-5.984h38.49q-1.768-7.344-6.936-11.56-5.168-4.352-12.24-4.352-7.072 0-12.38 4.352-5.304 4.352-6.936 11.56z" style="fill:url(#cvfb);stroke-width:4.946px" inkscape:connector-curvature="0"/>
   <path d="m40.94-14.63v-68.41h15.1v6.12q2.448-3.264 4.488-5.032 2.176-1.768 4.624-2.584 2.448-0.816 5.712-0.816h1.36v16.05q-7.616 0.272-11.29 4.216-3.536 3.944-3.536 12.1v38.35z" style="fill:url(#cvfe);stroke-width:4.946px" inkscape:connector-curvature="0"/>
   <path d="m76.32-49.17q0-14.96 10.61-25.57 10.74-10.61 25.71-10.61 14.28 0 24.89 9.928 6.392 5.848 9.384 15.1h-18.5q-2.992-5.44-6.8-7.752-3.672-2.312-8.976-2.312-8.704 0-14.28 6.12-5.576 6.12-5.576 15.37t5.848 15.37q5.848 6.12 14.69 6.12 9.248 0 15.1-9.52h18.5q-3.808 10.61-11.29 16.59-9.792 8.024-22.85 8.024-14.96 0-25.71-10.74-10.74-10.88-10.74-26.11z" style="fill:url(#cvfb);stroke-width:4.946px" inkscape:connector-curvature="0"/>
   <path d="m153.4-48.76q0-15.37 10.47-26.11 10.61-10.88 25.57-10.88 14.42 0 24.89 10.61 10.47 10.61 10.47 25.3 0 2.992-0.952 8.296h-53.18q1.632 6.12 6.8 10.2 5.304 3.944 11.56 3.944 9.792 0 15.23-8.84h18.09q-3.128 10.34-12.51 17.14-9.248 6.8-20.4 6.8-14.96 0-25.57-10.61-10.47-10.61-10.47-25.84zm16.86-5.984h38.49q-1.768-7.344-6.936-11.56-5.168-4.352-12.24-4.352t-12.38 4.352q-5.304 4.352-6.936 11.56z" style="fill:url(#cvfb);stroke-width:4.946px" inkscape:connector-curvature="0"/>
   <path d="m230.9-36.12h16.73q1.224 4.76 3.264 6.8 2.176 2.04 5.712 2.04 3.128 0 5.168-1.904 2.176-2.04 2.176-5.032t-2.448-4.896q-2.312-1.904-9.112-4.08-5.848-1.904-8.024-2.992-2.176-1.088-4.76-3.4-6.256-5.576-6.256-14.55 0-8.84 6.664-14.96 6.664-6.256 16.18-6.256 10.61 0 17.27 7.888 4.896 5.576 5.032 13.06h-16.05q-1.088-5.848-6.392-5.848-2.72 0-4.624 1.632-1.768 1.632-1.768 4.216 0 2.176 1.496 3.672 1.632 1.36 5.576 2.584 12.1 3.672 15.91 6.392 7.752 5.576 7.752 15.5 0 9.928-7.344 17-7.344 6.936-17.68 6.936-5.848 0-11.29-2.584-5.44-2.72-8.568-7.072-3.672-5.032-4.624-14.14z" style="fill:url(#cvfb);stroke-width:4.946px" inkscape:connector-curvature="0"/>
   <g transform="matrix(-.07716 0 0 .05816 -49.77 -106.6)" style="fill:url(#cvfa)">
    <path d="m736.1 8.1c-27.1 16-72.2 61.3-125.8 127l49.3 93.2c34.7-49.5 69.9-94.2 105.4-132.3 2.8-3 4.1-4.4 4.1-4.4-1.3 1.4-2.8 3-4.1 4.4-11.5 12.6-46.4 53.4-99 134.2 50.7-2.5 128.5-12.9 192-23.7 19-105.9-18.5-154.3-18.5-154.3s-47.6-77-103.4-44.1z" style="fill:url(#cvfa)" inkscape:connector-curvature="0"/>
    <path d="m652.5 539.9c0.3-0.1 0.7-0.1 1.1-0.2l-7.1 0.8-1.2 0.6c2.3-0.5 4.8-0.9 7.2-1.2z" style="fill:url(#cvfa)" inkscape:connector-curvature="0"/>
    <path d="m602 706.9c-4 0.9-8.1 1.6-12.3 2.3 4.2-0.7 8.3-1.5 12.3-2.3z" style="fill:url(#cvfa)" inkscape:connector-curvature="0"/>
    <path d="m586.6 709.6" style="fill:url(#cvfa)" inkscape:connector-curvature="0"/>
    <path d="m570.2 791c-6.3 1.1-12.7 2.3-19.4 3.4 0 0-0.1 0-0.1 0.1 3.4-0.5 6.7-1 10-1.5 3.1-0.7 6.3-1.3 9.5-2z" style="fill:url(#cvfa)" inkscape:connector-curvature="0"/>
    <path d="m570.2 791c-6.3 1.1-12.7 2.3-19.4 3.4 0 0-0.1 0-0.1 0.1 3.4-0.5 6.7-1 10-1.5 3.1-0.7 6.3-1.3 9.5-2z" style="fill:url(#cvfa);opacity:.35" inkscape:connector-curvature="0"/>
    <path d="m586.7 709.5v0c-0.1 0-0.1 0-0.1 0.1 1-0.1 2.1-0.3 3.1-0.5 4.2-0.6 8.3-1.3 12.3-2.3-5 0.9-10 1.8-15.3 2.7z" style="fill:url(#cvfa)" inkscape:connector-curvature="0"/>
    <path d="m586.7 709.5v0c-0.1 0-0.1 0-0.1 0.1 1-0.1 2.1-0.3 3.1-0.5 4.2-0.6 8.3-1.3 12.3-2.3-5 0.9-10 1.8-15.3 2.7z" style="fill:url(#cvfa);opacity:.35" inkscape:connector-curvature="0"/>
    <path d="m514 469.2c15-28.1 30.2-55.5 45.5-82.1 15.9-27.8 32.1-54.6 48.4-80.6 0.9-1.5 2-3.1 2.9-4.6 16.1-25.5 32.4-50.1 48.7-73.5l-49.3-93.2c-3.7 4.5-7.4 9.1-11.2 13.9-14.3 17.8-29 36.8-44.2 57.1-17.1 22.8-34.6 47.2-52.5 72.8-16.4 23.6-33.2 48.3-50 74-14.3 21.8-28.5 44.2-42.7 67.2-0.5 0.8-1 1.7-1.5 2.6l64.3 127c13.6-27.5 27.6-54.4 41.6-80.6z" style="fill:url(#cvfa)" inkscape:connector-curvature="0"/>
    <path d="m221.2 1184c-8.5 23.3-17.1 47.2-25.6 71.5-0.1 0.3-0.2 0.7-0.4 1-1.2 3.4-2.5 6.9-3.6 10.3-5.8 16.4-10.8 31.2-22.3 64.7 18.9 8.6 34.1 31.4 48.5 57.2-1.5-26.7-12.5-51.8-33.6-71.2 93.3 4.2 173.7-19.4 215.3-87.6 3.7-6.1 7.1-12.4 10.2-19.3-18.9 24-42.4 34.1-86.5 31.7-0.1 0-0.2 0.1-0.3 0.1 0.1 0 0.2-0.1 0.3-0.1 65-29.1 97.5-57 126.4-103.2 6.8-11 13.5-22.9 20.3-36.2-56.8 58.3-122.5 74.9-191.8 62.3l-52 5.7c-1.7 4.4-3.2 8.7-4.9 13.1z" style="fill:url(#cvfa)" inkscape:connector-curvature="0"/>
    <path d="m245.5 1068c11.2-29 22.8-58.4 34.6-88 11.4-28.4 23-57 35-85.6s24.2-57.5 36.6-86.3c12.6-29.3 25.6-58.5 38.9-87.6 13.1-28.8 26.3-57.4 39.8-85.6 4.8-10.2 9.8-20.4 14.7-30.5 8.5-17.5 17.1-34.9 25.8-52.1 0.5-0.9 0.9-1.9 1.4-2.8l-64.3-127c-1 1.7-2.1 3.5-3.2 5.1-15 24.5-29.9 49.5-44.5 75-14.8 25.8-29.3 52.1-43.5 78.8-11.9 22.5-23.6 45.1-35.1 68.1-2.3 4.6-4.5 9.3-6.8 13.9-14 28.9-26.6 56.6-38.1 83.5-13 30.3-24.4 59.3-34.3 86.8-6.6 18.1-12.5 35.5-18 52.3-4.5 14.3-8.7 28.7-12.9 43-9.6 33.6-17.9 67.2-24.7 100.6l64.6 127.5c8.5-22.8 17.3-46 26.3-69.4 2.7-6.7 5.1-13.3 7.7-19.7z" style="fill:url(#cvfa)" inkscape:connector-curvature="0"/>
    <path d="m146.2 1034c-8.1 40.8-13.9 81.4-16.8 121.8l-0.3 4.2c-20.2-32.3-74.1-63.8-74-63.5 38.7 56 68 111.6 72.3 166.2-20.7 4.2-49-1.9-81.7-13.9 34.1 31.4 59.7 40 69.8 42.4-31.4 2-64 23.5-96.9 48.3 48.1-19.6 87-27.4 114.8-21.1-44.2 125-88.4 263-132.7 409.6 13.6-4 21.7-13.2 26.2-25.5 7.9-26.5 60.2-200.7 142.3-429.4 2.4-6.5 4.7-13.1 7.1-19.6 0.6-1.9 1.3-3.7 2-5.4 8.6-24 17.7-48.5 26.9-73.5 2.1-5.7 4.2-11.4 6.4-17.1 0-0.1 0.1-0.2 0.1-0.3l-64.7-127.5c-0.2 1.3-0.5 2.8-0.8 4.3z" style="fill:url(#cvfa)" inkscape:connector-curvature="0"/>
    <path d="m482.3 560.2c-1.9 3.8-3.7 7.6-5.6 11.4-5.6 11.5-11.2 23.2-17 35.2-6.2 13-12.4 26.2-18.7 39.8-3.2 6.8-6.4 13.7-9.6 20.7-9.6 20.9-19.3 42.5-29.2 64.8-12.1 27.3-24.6 55.8-37.1 85.4-11.9 28.2-24.2 57.3-36.4 87.5-11.7 28.6-23.5 58.2-35.5 88.6-10.7 27.1-21.5 55.1-32.3 83.8-0.5 1.3-1 2.8-1.5 4.1-10.8 28.5-21.7 57.8-32.6 87.8-0.2 0.7-0.5 1.3-0.7 2.1l52-5.7c-1-0.2-2.1-0.3-3.1-0.5 62.1-7.7 144.8-54.2 198.1-111.5 24.6-26.4 46.9-57.6 67.5-94.1 15.3-27.1 29.8-57.3 43.6-90.6 12-29.1 23.5-60.7 34.6-94.8-14.3 7.5-30.6 13.1-48.6 16.9-3.2 0.7-6.4 1.3-9.7 1.9s-6.6 1.1-10 1.5c0 0 0.1 0 0.1-0.1 58-22.3 94.5-65.3 121-118-15.2 10.4-40 24-69.7 30.5-4 0.9-8.1 1.6-12.3 2.3-1 0.1-2.1 0.3-3.1 0.5h0.1 0.1c20.2-8.4 37.1-17.9 51.8-29 3.2-2.4 6.3-4.8 9.1-7.4 4.5-3.9 8.7-8 12.9-12.2 2.6-2.8 5.1-5.6 7.6-8.5 5.8-6.9 11.2-14.3 16.2-22.3 1.5-2.5 3.1-4.9 4.5-7.5 2-3.7 3.8-7.4 5.6-10.9 8.1-16.2 14.6-30.8 19.7-43.5 2.6-6.4 4.8-12.2 6.8-17.8 0.8-2.2 1.5-4.3 2.2-6.4 2.1-6.1 3.7-11.5 5-16.3 2-7.2 3.2-12.9 3.8-17-2 1.5-4.2 3.1-6.8 4.6-17.5 10.5-47.5 19.9-71.7 24.4l47.7-5.2-47.7 5.2c-0.3 0.1-0.7 0.1-1.1 0.2-2.5 0.4-4.8 0.8-7.3 1.1l1.2-0.6-163.3 17.9c0 0.4-0.3 1.1-0.6 1.7z" style="fill:url(#cvfa)" inkscape:connector-curvature="0"/>
    <path d="m666.1 230.2c-14.5 22.3-30.3 47.6-47.5 76.3-0.9 1.4-1.9 3.1-2.7 4.5-14.7 24.8-30.3 52-46.9 81.9-14.2 25.8-29 53.4-44.4 83.1-13.4 25.9-27.2 53.4-41.5 82.5l163.3-17.9c47.6-21.9 68.8-41.6 89.4-70.3 5.4-7.9 11-16.1 16.4-24.7 16.8-26.2 33.2-55 47.9-83.7 14.2-27.7 26.7-55.1 36.3-79.9 6.1-15.7 11-30.3 14.4-43.2 3-11.3 5.3-22.1 7.1-32.4-63.3 10.9-141.2 21.3-191.8 23.8z" style="fill:url(#cvfa)" inkscape:connector-curvature="0"/>
    <path d="m560.5 792.8c-3.3 0.6-6.6 1.1-10 1.5 3.4-0.3 6.8-0.9 10-1.5z" style="fill:url(#cvfa)" inkscape:connector-curvature="0"/>
    <path d="m560.5 792.8c-3.3 0.6-6.6 1.1-10 1.5 3.4-0.3 6.8-0.9 10-1.5z" style="fill:url(#cvfa);opacity:.35" inkscape:connector-curvature="0"/>
    <path d="m560.5 792.8c-3.3 0.6-6.6 1.1-10 1.5 3.4-0.3 6.8-0.9 10-1.5z" style="fill:url(#cvfa)" inkscape:connector-curvature="0"/>
    <path d="m586.6 709.6c1-0.1 2.1-0.3 3.1-0.5-1 0.1-2 0.4-3.1 0.5z" style="fill:url(#cvfa)" inkscape:connector-curvature="0"/>
    <path d="m586.6 709.6c1-0.1 2.1-0.3 3.1-0.5-1 0.1-2 0.4-3.1 0.5z" style="fill:url(#cvfa);opacity:.35" inkscape:connector-curvature="0"/>
    <path d="m586.6 709.6c1-0.1 2.1-0.3 3.1-0.5-1 0.1-2 0.4-3.1 0.5z" style="fill:url(#cvfa)" inkscape:connector-curvature="0"/>
    <path d="m586.6 709.6c0.1 0 0.1-0.1 0 0 0.1-0.1 0.1 0 0 0z" style="fill:url(#cvfa)" inkscape:connector-curvature="0"/>
    <path d="m586.6 709.6c0.1 0 0.1-0.1 0 0 0.1-0.1 0.1 0 0 0z" style="fill:url(#cvfa);opacity:.35" inkscape:connector-curvature="0"/>
    <path d="m586.6 709.6c0.1 0 0.1-0.1 0 0 0.1-0.1 0.1 0 0 0z" style="fill:url(#cvfa)" inkscape:connector-curvature="0"/>
   </g>
   <path d="m-129.3-15.13 72.86-91.12h20.86l-72.86 91.12z" style="fill:url(#cvfb);stroke-width:5.501px" inkscape:connector-curvature="0"/>
  </g>
  <g style="fill:#3091d2">
   <path d="m170.4-99.89h-2.287v-1.592q-1.48 1.772-3.969 1.772-1.861 0-3.095-1.054-1.211-1.054-1.211-2.803 0-1.772 1.301-2.646t3.521-0.8746h3.252v-0.4485q0-2.377-2.646-2.377-1.66 0-3.454 1.211l-1.121-1.57q2.175-1.727 4.934-1.727 2.108 0 3.431 1.076 1.346 1.054 1.346 3.341zm-2.512-4.44v-1.009h-2.826q-2.714 0-2.714 1.704 0 0.8746 0.6728 1.346 0.6728 0.4485 1.861 0.4485 1.211 0 2.108-0.6728 0.897-0.6728 0.897-1.817z" style="fill:#3091d2;stroke-width:.8155px"/>
   <path d="m180.3-112q2.4 0 4.104 1.66 1.704 1.66 1.704 4.418t-1.704 4.485q-1.682 1.727-3.947 1.727-2.243 0-4.037-1.973v6.145h-2.512v-16.28h2.512v2.086q1.48-2.265 3.88-2.265zm-3.925 6.167q0 1.704 1.032 2.803 1.032 1.076 2.512 1.076t2.579-1.076 1.099-2.781q0-1.727-1.076-2.848-1.076-1.144-2.579-1.144-1.503 0-2.534 1.144-1.032 1.121-1.032 2.826z" style="fill:#3091d2;stroke-width:.8155px"/>
   <path d="m198.7-99.89h-2.287v-1.592q-1.48 1.772-3.969 1.772-1.861 0-3.095-1.054-1.211-1.054-1.211-2.803 0-1.772 1.301-2.646t3.521-0.8746h3.252v-0.4485q0-2.377-2.646-2.377-1.66 0-3.454 1.211l-1.121-1.57q2.175-1.727 4.934-1.727 2.108 0 3.431 1.076 1.346 1.054 1.346 3.341zm-2.512-4.44v-1.009h-2.826q-2.714 0-2.714 1.704 0 0.8746 0.6728 1.346 0.6728 0.4485 1.861 0.4485 1.211 0 2.108-0.6728 0.897-0.6728 0.897-1.817z" style="fill:#3091d2;stroke-width:.8155px"/>
   <path d="m207.5-99.71q-2.489 0-4.283-1.682-1.794-1.704-1.794-4.44t1.861-4.44q1.884-1.727 4.575-1.727 2.691 0 4.552 1.861l-1.48 1.817q-1.547-1.346-3.117-1.346-1.57 0-2.736 1.054-1.144 1.032-1.144 2.691 0 1.637 1.144 2.781t2.803 1.144q1.682 0 3.162-1.525l1.48 1.615q-2.175 2.198-5.023 2.198z" style="fill:#3091d2;stroke-width:.8155px"/>
   <path d="m217.6-106.4v6.459h-2.512v-16.62h2.512v6.862q0.5382-1.099 1.615-1.727 1.099-0.6279 2.355-0.6279 2.018 0 3.252 1.233 1.256 1.233 1.256 3.566v7.311h-2.512v-6.548q0-3.297-2.736-3.297-1.301 0-2.265 0.8746-0.9643 0.8522-0.9643 2.512z" style="fill:#3091d2;stroke-width:.8155px"/>
   <path d="m240.7-104.8h-9.352q0.0897 1.301 1.189 2.108 1.099 0.7849 2.512 0.7849 2.243 0 3.409-1.413l1.435 1.57q-1.929 1.996-5.023 1.996-2.512 0-4.283-1.66-1.749-1.682-1.749-4.485 0-2.826 1.794-4.485t4.216-1.66q2.444 0 4.149 1.48 1.704 1.458 1.704 4.037zm-9.352-1.973h6.84q0-1.503-0.9419-2.31-0.9419-0.8073-2.332-0.8073-1.368 0-2.467 0.8522-1.099 0.8298-1.099 2.265z" style="fill:#3091d2;stroke-width:.8155px"/>
  </g>
 </g>
</svg>
